<svg xmlns="http://www.w3.org/2000/svg" width="500" height="500"><path fill="#FD0065" d="M232.598 15.77h4.456q4.635.003 9.271.024 5.952.024 11.904.02 4.584.001 9.17.013 2.196.005 4.393.006c2.034.002 4.068.012 6.103.022l3.508.011C284 16 284 16 285 17l3.375.438C292 18 292 18 295 20c2.936.422 2.936.422 6.125.563 5.777.339 5.777.339 6.875 1.437 1.512.391 3.035.74 4.563 1.063l2.503.535L317 24v2l2.938-.062C323 26 323 26 324 27c1.512.391 3.035.74 4.563 1.063l2.503.535L333 29v2l2.063.375c3.365.716 6.637 1.654 9.937 2.625v2l2.188.375c2.77.615 5.209 1.51 7.812 2.625v2l2.313.375C360 42 360 42 363 44v2l2.25-.125c2.838.129 4.338.696 6.75 2.125v2l3 1v2l2.375.438C380 54 380 54 382 55v3l2.313.375C387 59 387 59 390 61v2l1.813.375C394 64 394 64 397 66v2h3v2h2v3l5 2v3h3v2h2v3h3v2h2v3h2v2h3v3h2v2h3v2h2v3l3 1a56.5 56.5 0 0 1-4 7c-3.14.286-6.082.378-9.223.34l-2.898.002c-3.17-.002-6.34-.026-9.512-.049q-3.29-.009-6.583-.013c-5.783-.011-11.567-.04-17.35-.074-5.899-.03-11.797-.044-17.696-.06q-17.37-.05-34.738-.146v2l2.598-.07c7.29-.115 12.995.057 19.668 3.105 3.224 1.138 6.074 1.346 9.484 1.528 6.15.337 6.15.337 7.25 1.437 2.515.284 5.03.448 7.555.621C379 117 379 117 382 119c2.902.422 2.902.422 6.063.563 5.744.34 5.744.34 7.937 1.437 2.037.229 4.08.41 6.125.563l3.32.253L408 122l1 3h2.3c12.075 0 12.075 0 16.887 1l2.731.563L433 127l1 3 2.852-.14c11.444-.332 11.444-.332 15.023 1.952C454 134 454 134 454 137h2l1 5h2v5h2q.974 2.842 1.938 5.688l1.09 3.199A64 64 0 0 1 466 164l3 1v5h2v9l3 1v7h2v12l3 1 .684 6.152c.135 1.86.135 1.86 1.316 2.848.147 2.278.228 4.561.281 6.844l.056 2.073c.079 2.94.147 5.879.215 8.818q.08 3.21.167 6.421l.092 3.9c-.143 2.832-.143 2.832 1.189 3.944.903 7.393 1.438 14.665 0 22l-1 1c-.146 1.84-.227 3.686-.281 5.531l-.114 3.395-.105 3.574a1806 1806 0 0 1-.219 6.969l-.092 3.138C481 289 481 289 480 290a86 86 0 0 0-.562 4.563l-.254 2.503L479 299l-3 1 .035 1.934.027 2.503.036 2.497C476 309 476 309 475 310a86 86 0 0 0-.562 4.563l-.254 2.503L474 319l-3 1c.03 1.207.03 1.207.063 2.438C471 325 471 325 470 326a236 236 0 0 0-1 7l-3 1-.414 2.172a123 123 0 0 1-1.961 8.078c-.235.871-.47 1.743-.71 2.64L462 349l-3 1 .25 2.188c-.329 3.698-1.894 4.985-4.25 7.812-1.144 2.292-2.055 4.614-3 7l-1 2h-2v5h-2l-1 3h-2v2h-2v5h-3l-.25 1.625c-1.026 3.248-2.716 5.663-4.75 8.375h-2v3h-3v4l-5 1v4h-2v3h-3v2h-2l-.812 1.938C415 415 415 415 412 416l-.875 2c-1.125 2-1.125 2-3.75 2.75L405 421l-1 3h-2v2h-2v3h-3v2c-2.561 2.296-3.48 3-7 3v2h-3v3c-2.647 1.46-3.894 2-7 2v3h-3v2h-5v3c-3 2-3 2-7 2v2l-5 1v2h-5l-1 3h-4v2h-5v2h-5v3h-7v2l-3.875.375c-3.473.315-3.473.315-6.125 2.625-3.322.874-6.666 1.534-10.031 2.219-3.063.54-3.063.54-4.969 2.781-2.566.379-2.566.379-5.562.563-3.532-.065-3.532-.065-6.438 1.437-4.098.605-7.853 1-12 1l-1.864.985c-2.863 1.36-5.145 1.262-8.31 1.258l-3.782.01-4.075-.023h-4.192q-4.387-.003-8.776-.024-5.618-.024-11.237-.02-4.326-.001-8.653-.013-2.07-.005-4.143-.006-2.897-.005-5.794-.022l-3.328-.011c-2.457-.116-4.504-.422-6.846-1.134v-2l-3.246.035-4.191.027-2.143.026c-1.807.009-3.614-.036-5.42-.088l-1-1-3.437-.437C190 476 190 476 188 474l-3.125-.437c-3.665-.533-6.536-1.443-9.941-2.797-2.609-1.033-5.267-1.9-7.934-2.766v-2h-7v-3h-5v-2h-7v-2l-5-1v-2l-2.312-.375C138 455 138 455 135 453v-2h-5v-2l-4-1v-2h-5v-2h-3v-3h-3v-2l-4-1v-2h-3v-2l-3-1v-2l-1.812-.375C101 430 101 430 98 428v-2h-2v-2h-3v-3h-2v-2h-3v-3h-2v-4h2l1-3q2.656-.04 5.313-.062l2.988-.036C100 409 100 409 103 410a437 437 0 0 0 5-1c2.529-.099 5.03-.15 7.56-.151l2.281-.013q3.777-.019 7.554-.025l5.42-.026q5.835-.027 11.667-.045 9.22-.032 18.441-.077c14.157-.065 28.314-.12 42.47-.176q19.466-.074 38.932-.165a13363 13363 0 0 1 18.339-.071q5.699-.021 11.397-.05 2.646-.012 5.292-.018 3.608-.01 7.214-.032h2.124c3.267-.025 6.171-.242 9.309-1.151a99 99 0 0 1 5 0l1-3h11v-2l2.938-.937c2.903-.758 2.903-.758 4.062-2.063 2-.04 4-.043 6 0v-2h2v-2l5-1v-2h5v-3l1.875-.812c2.425-1.144 2.425-1.144 4.125-4.188h2v-2h2v-2h3v-3h2v-2h2v-3h3v-5h2v-2h3v-5h2v-5l3-1v-9h2l-.07-2.195c-.103-5.51.325-9.571 2.07-14.805.683-7.387.683-7.387-2-14-.309-2.637-.309-2.637-.437-5.687-.548-8.274-.548-8.274-4.563-15.313a100 100 0 0 1 0-5h-2v-5l-3-1c-1.648-2.602-2-3.862-2-7h-3v-2h-2v-3h-3v-2h-2c-2.625-2.375-2.625-2.375-5-5v-2l-3-1v-2h-4v-2l-3-1v-2h-5v-2h-2v-7l5-1v-2h2v-2l5-1v-2h2v-2h3v-3h2c1.206-2.332 2.165-4.496 3-7h2l1-3h2v-5h2l.313-2.5c.657-3.35 1.642-6.154 2.968-9.277 1.71-5.287 1.841-10.738 1.817-16.25l-.01-3.897-.026-4.013q-.008-2.049-.013-4.096-.018-4.984-.049-9.967h-2v-7l-3-1c-.73-2.066-.73-2.066-1.187-4.562l-.481-2.504L353 149h-2l-1-5h-2c-3-4.385-3-4.385-3-7h-2v-3l-5-2v-3h-4v-2h-3c-1.687-1.375-1.687-1.375-3-3v-2l-6-1-1 3-7-4 2-3-5-1v-2l-1.758-.367c-3.463-.743-6.79-1.466-10.117-2.695-3.935-1.18-7.745-1.422-11.832-1.692C285 109 285 109 284 108a80 80 0 0 0-4.832-.127l-3.17-.009-3.507.007-3.67-.006a4885 4885 0 0 0-9.999 0c-3.485.003-6.97 0-10.455 0q-8.787-.004-17.574.005-10.154.006-20.307-.002-8.714-.007-17.427-.003-5.205.003-10.411-.001c-3.874-.004-7.748.001-11.622.007l-3.482-.007-3.204.009-2.775.001c-2.617.063-2.617.063-5.336.696L154 109l-1-1-1 6h-2l.018 3.094q.222 37.243.425 74.486.098 18.01.205 36.02.095 15.697.177 31.392.043 8.313.096 16.625.049 7.823.086 15.644.014 2.873.035 5.745.026 3.919.04 7.838l.02 2.302c.009 3.749-.196 7.21-1.102 10.854h2v2h50v-43l5-1v-3q12.855-.07 25.712-.104 5.97-.014 11.939-.047 5.757-.032 11.515-.039 2.2-.004 4.4-.021c2.05-.015 4.099-.017 6.148-.016l3.54-.014C273 273 273 273 275 275c2.655.565 5.291.738 8 1v2l7 1v2h3v2h3v2l1.813.75c2.503 1.43 3.668 2.82 5.187 5.25v2h2l1 5h2l.938 2.875c.936 2.986.936 2.986 2.062 5.125 1.71 9.825.399 19.244-1 29h-2l-.312 2.125c-.794 3.317-1.954 5.94-3.688 8.875l-3 1v3h-3v2h-2l-1 3h-2v2h-5l-1 3h-4v2l-3.125.375c-3.742.472-3.742.472-6.602 1.649-3.893 1.161-7.5 1.25-11.522 1.223l-2.47.008c-2.724.005-5.448-.003-8.172-.012q-2.936.001-5.87.006c-5.316.005-10.63-.003-15.945-.013-5.58-.01-11.16-.007-16.74-.007q-14.077-.002-28.157-.023a21361 21361 0 0 0-32.411-.02q-17.317-.001-34.635-.016l-9.904-.003q-7.846-.002-15.688-.017-2.854-.004-5.707-.004c-5.149.001-10.296-.027-15.445-.107a839 839 0 0 0-5.447-.063 572 572 0 0 1-8.587-.173l-2.64-.015c-4.237-.147-7.116-.493-10.508-3.162C41 359 41 359 40.625 356.188L41 354h-2l-.937-2.437c-.826-2.454-.826-2.454-2.063-3.563-.04-2-.043-4 0-6h-2c-2.945-3.888-3.346-7.256-4-12-1.399-3.561-2.977-6.953-4.687-10.375-1.587-4.381-1.595-8.026-1.313-12.625l-3-1v-9h-2v-15h-2c-.825-7.69-1.16-15.287-1.168-23.02l-.01-3.34q-.007-3.465-.007-6.93c-.003-3.53-.02-7.06-.04-10.59q-.005-3.382-.005-6.765l-.022-3.182c.016-5.169.3-9.312 2.252-14.173.352-3.556.501-7.091.656-10.66.33-3.203 1.007-5.44 2.344-8.34 1.599-4.326 2.45-8.42 3-13h2l1-5h2l-.07-1.758c-.113-4.856.195-8.671 2.07-13.242h3v-7h2l1-5h2v-5h2v-5h3v-5h2l.375-1.75c.631-2.273 1.514-4.175 2.625-6.25h2l.25-2.375C52 122 52 122 54.063 120.688L56 120v-5h2l1-3h2l.938-2.375C63 107 63 107 64 105h2l2-5h3l.375-1.812C72 96 72 96 74 93h2l2-5h3v-3h2v-2h3v-3h2v-2h3l1-3h2v-2h2l1-3h3v-2h3l1-3 6-2 1-3h2v-2c4.385-3 4.385-3 7-3v-2h3v-2l5-1v-2l3.438-.812L135 46l1-3h4v-2h5l1-3c2.145-1.133 2.145-1.133 4.813-2.125l2.644-1.008A65 65 0 0 1 160 33v-2h10v-3h5v-2h7l1-3 6.152-.684c1.86-.135 1.86-.135 2.848-1.316a92 92 0 0 1 5.063-.062l2.785.027L202 21v-2l2.229-.434c1.64-.335 3.275-.69 4.898-1.093 7.782-1.834 15.528-1.746 23.47-1.703"/><path fill="#0155D6" d="M320 107c6.625-.125 6.625-.125 10 1v2l2.598-.07c7.29-.115 12.995.057 19.668 3.105 3.224 1.138 6.074 1.346 9.484 1.528 6.15.337 6.15.337 7.25 1.437 2.515.284 5.03.448 7.555.621C379 117 379 117 382 119c2.902.422 2.902.422 6.063.563 5.744.34 5.744.34 7.937 1.437 2.037.229 4.08.41 6.125.563l3.32.253L408 122l1 3h2.3c12.075 0 12.075 0 16.887 1l2.731.563L433 127l1 3 2.852-.14c11.444-.332 11.444-.332 15.023 1.952C454 134 454 134 454 137h2l1 5h2v5h2q.974 2.842 1.938 5.688l1.09 3.199A64 64 0 0 1 466 164l3 1v5h2v9l3 1v7h2v12l3 1 .684 6.152c.135 1.86.135 1.86 1.316 2.848.147 2.278.228 4.561.281 6.844l.056 2.073c.079 2.94.147 5.879.215 8.818q.08 3.21.167 6.421l.092 3.9c-.143 2.832-.143 2.832 1.189 3.944.903 7.393 1.438 14.665 0 22l-1 1c-.146 1.84-.227 3.686-.281 5.531l-.114 3.395-.105 3.574a1806 1806 0 0 1-.219 6.969l-.092 3.138C481 289 481 289 480 290a86 86 0 0 0-.562 4.563l-.254 2.503L479 299l-3 1 .035 1.934.027 2.503.036 2.497C476 309 476 309 475 310a86 86 0 0 0-.562 4.563l-.254 2.503L474 319l-3 1c.03 1.207.03 1.207.063 2.438C471 325 471 325 470 326a236 236 0 0 0-1 7l-3 1-.414 2.172a123 123 0 0 1-1.961 8.078c-.235.871-.47 1.743-.71 2.64L462 349l-3 1 .25 2.188c-.329 3.698-1.894 4.985-4.25 7.812-1.144 2.292-2.055 4.614-3 7l-1 2h-2v5h-2l-1 3h-2v2h-2v5h-3l-.25 1.625c-1.026 3.248-2.716 5.663-4.75 8.375h-2v3h-3v4l-5 1v4h-2v3h-3v2h-2l-.812 1.938C415 415 415 415 412 416l-.875 2c-1.125 2-1.125 2-3.75 2.75L405 421l-1 3h-2v2h-2v3h-3v2c-2.561 2.296-3.48 3-7 3v2h-3v3c-2.647 1.46-3.894 2-7 2v3h-3v2h-5v3c-3 2-3 2-7 2v2l-5 1v2h-5l-1 3h-4v2h-5v2h-5v3h-7v2l-3.875.375c-3.473.315-3.473.315-6.125 2.625-3.322.874-6.666 1.534-10.031 2.219-3.063.54-3.063.54-4.969 2.781-2.566.379-2.566.379-5.562.563-3.532-.065-3.532-.065-6.438 1.437-4.098.605-7.853 1-12 1l-1.864.985c-2.863 1.36-5.145 1.262-8.31 1.258l-3.782.01-4.075-.023h-4.192q-4.387-.003-8.776-.024-5.618-.024-11.237-.02-4.326-.001-8.653-.013-2.07-.005-4.143-.006-2.897-.005-5.794-.022l-3.328-.011c-2.457-.116-4.504-.422-6.846-1.134v-2l-3.246.035-4.191.027-2.143.026c-1.807.009-3.614-.036-5.42-.088l-1-1-3.437-.437C190 476 190 476 188 474l-3.125-.437c-3.665-.533-6.536-1.443-9.941-2.797-2.609-1.033-5.267-1.9-7.934-2.766v-2h-7v-3h-5v-2h-7v-2l-5-1v-2l-2.312-.375C138 455 138 455 135 453v-2h-5v-2l-4-1v-2h-5v-2h-3v-3h-3v-2l-4-1v-2h-3v-2l-3-1v-2l-1.812-.375C101 430 101 430 98 428v-2h-2v-2h-3v-3h-2v-2h-3v-3h-2v-4h2l1-3q2.656-.04 5.313-.062l2.988-.036C100 409 100 409 103 410a437 437 0 0 0 5-1c2.529-.099 5.03-.15 7.56-.151l2.281-.013q3.777-.019 7.554-.025l5.42-.026q5.835-.027 11.667-.045 9.22-.032 18.441-.077c14.157-.065 28.314-.12 42.47-.176q19.466-.074 38.932-.165a13363 13363 0 0 1 18.339-.071q5.699-.021 11.397-.05 2.646-.012 5.292-.018 3.608-.01 7.214-.032h2.124c3.267-.025 6.171-.242 9.309-1.151a99 99 0 0 1 5 0l1-3h11v-2l2.938-.937c2.903-.758 2.903-.758 4.062-2.063 2-.04 4-.043 6 0v-2h2v-2l5-1v-2h5v-3l1.875-.812c2.425-1.144 2.425-1.144 4.125-4.188h2v-2h2v-2h3v-3h2v-2h2v-3h3v-5h2v-2h3v-5h2v-5l3-1v-9h2l-.07-2.195c-.103-5.51.325-9.571 2.07-14.805.683-7.387.683-7.387-2-14-.309-2.637-.309-2.637-.437-5.687-.548-8.274-.548-8.274-4.563-15.313a100 100 0 0 1 0-5h-2v-5l-3-1c-1.648-2.602-2-3.862-2-7h-3v-2h-2v-3h-3v-2h-2c-2.625-2.375-2.625-2.375-5-5v-2l-3-1v-2h-4v-2l-3-1v-2h-5v-2h-2v-7l5-1v-2h2v-2l5-1v-2h2v-2h3v-3h2c1.206-2.332 2.165-4.496 3-7h2l1-3h2v-5h2l.313-2.5c.657-3.35 1.642-6.154 2.968-9.277 1.71-5.287 1.841-10.738 1.817-16.25l-.01-3.897-.026-4.013q-.008-2.049-.013-4.096-.018-4.984-.049-9.967h-2v-7l-3-1c-.73-2.066-.73-2.066-1.187-4.562-.16-.827-.318-1.653-.481-2.504L353 149h-2l-1-5h-2c-3-4.385-3-4.385-3-7h-2v-3l-5-2v-3h-4v-2h-3c-1.687-1.375-1.687-1.375-3-3v-2l-6-1-1 3-7-4 2-3-5-1v-2h2v-2c3.402-2.094 6.053-2.18 10-2v-2z"/><path fill="#E61462" d="M232.598 15.77h4.456q4.635.003 9.271.024 5.952.024 11.904.02 4.584.001 9.17.013 2.196.005 4.393.006c2.034.002 4.068.012 6.103.022l3.508.011C284 16 284 16 285 17l3.375.438C292 18 292 18 295 20c2.936.422 2.936.422 6.125.563 5.777.339 5.777.339 6.875 1.437 1.512.391 3.035.74 4.563 1.063l2.503.535L317 24v2l2.938-.062C323 26 323 26 324 27c1.512.391 3.035.74 4.563 1.063l2.503.535L333 29v2l2.063.375c3.365.716 6.637 1.654 9.937 2.625v2l2.188.375c2.77.615 5.209 1.51 7.812 2.625v2l2.313.375C360 42 360 42 363 44v2l2.25-.125c2.838.129 4.338.696 6.75 2.125v2l3 1v2l2.375.438C380 54 380 54 382 55v3l2.313.375C387 59 387 59 390 61v2l1.813.375C394 64 394 64 397 66v2h3v2h2v3l5 2v3h3v2h2v3h3v2h2v3h2v2h3v3h2v2h3v2h2v3l3 1a56.5 56.5 0 0 1-4 7c-1.886.37-1.886.37-4.227.36l-2.685.013-2.954-.032h-3.104c-3.398-.001-6.796-.025-10.194-.048q-3.527-.009-7.054-.013c-6.198-.011-12.396-.04-18.593-.074-6.321-.03-12.642-.044-18.962-.06q-18.614-.05-37.227-.146v2l-10 2v2c-3.594-.68-7.095-1.548-10.625-2.5-5.11-1.304-10.034-1.973-15.293-2.29C285 109 285 109 284 108a80 80 0 0 0-4.832-.127l-3.17-.009-3.507.007-3.67-.006a4885 4885 0 0 0-9.999 0c-3.485.003-6.97 0-10.455 0q-8.787-.004-17.574.005-10.154.006-20.307-.002-8.714-.007-17.427-.003-5.205.003-10.411-.001c-3.874-.004-7.748.001-11.622.007l-3.482-.007-3.204.009-2.775.001c-2.617.063-2.617.063-5.336.696L154 109l-1-1-1 6h-2l.018 3.094q.222 37.243.425 74.486.098 18.01.205 36.02.095 15.697.177 31.392.043 8.313.096 16.625.049 7.823.086 15.644.014 2.873.035 5.745.026 3.919.04 7.838l.02 2.302c.009 3.749-.196 7.21-1.102 10.854h2v2h50v-43l5-1v-3q12.855-.07 25.712-.104 5.97-.014 11.939-.047 5.757-.032 11.515-.039 2.2-.004 4.4-.021c2.05-.015 4.099-.017 6.148-.016l3.54-.014C273 273 273 273 275 275c2.655.565 5.291.738 8 1v2l7 1v2h3v2h3v2l1.813.75c2.503 1.43 3.668 2.82 5.187 5.25v2h2l1 5h2l.938 2.875c.936 2.986.936 2.986 2.062 5.125 1.71 9.825.399 19.244-1 29h-2l-.312 2.125c-.794 3.317-1.954 5.94-3.688 8.875l-3 1v3h-3v2h-2l-1 3h-2v2h-5l-1 3h-4v2l-3.125.375c-3.742.472-3.742.472-6.602 1.649-3.893 1.161-7.5 1.25-11.522 1.223l-2.47.008c-2.724.005-5.448-.003-8.172-.012q-2.936.001-5.87.006c-5.316.005-10.63-.003-15.945-.013-5.58-.01-11.16-.007-16.74-.007q-14.077-.002-28.157-.023a21361 21361 0 0 0-32.411-.02q-17.317-.001-34.635-.016l-9.904-.003q-7.846-.002-15.688-.017-2.854-.004-5.707-.004c-5.149.001-10.296-.027-15.445-.107a839 839 0 0 0-5.447-.063 572 572 0 0 1-8.587-.173l-2.64-.015c-4.237-.147-7.116-.493-10.508-3.162C41 359 41 359 40.625 356.188L41 354h-2l-.937-2.437c-.826-2.454-.826-2.454-2.063-3.563-.04-2-.043-4 0-6h-2c-2.945-3.888-3.346-7.256-4-12-1.399-3.561-2.977-6.953-4.687-10.375-1.587-4.381-1.595-8.026-1.313-12.625l-3-1v-9h-2v-15h-2c-.825-7.69-1.16-15.287-1.168-23.02l-.01-3.34q-.007-3.465-.007-6.93c-.003-3.53-.02-7.06-.04-10.59q-.005-3.382-.005-6.765l-.022-3.182c.016-5.169.3-9.312 2.252-14.173.352-3.556.501-7.091.656-10.66.33-3.203 1.007-5.44 2.344-8.34 1.599-4.326 2.45-8.42 3-13h2l1-5h2l-.07-1.758c-.113-4.856.195-8.671 2.07-13.242h3v-7h2l1-5h2v-5h2v-5h3v-5h2l.375-1.75c.631-2.273 1.514-4.175 2.625-6.25h2l.25-2.375C52 122 52 122 54.063 120.688L56 120v-5h2l1-3h2l.938-2.375C63 107 63 107 64 105h2l2-5h3l.375-1.812C72 96 72 96 74 93h2l2-5h3v-3h2v-2h3v-3h2v-2h3l1-3h2v-2h2l1-3h3v-2h3l1-3 6-2 1-3h2v-2c4.385-3 4.385-3 7-3v-2h3v-2l5-1v-2l3.438-.812L135 46l1-3h4v-2h5l1-3c2.145-1.133 2.145-1.133 4.813-2.125l2.644-1.008A65 65 0 0 1 160 33v-2h10v-3h5v-2h7l1-3 6.152-.684c1.86-.135 1.86-.135 2.848-1.316a92 92 0 0 1 5.063-.062l2.785.027L202 21v-2l2.229-.434c1.64-.335 3.275-.69 4.898-1.093 7.782-1.834 15.528-1.746 23.47-1.703M225 22l-1 2q-2.988.57-6 1l-2 1-3.25-.187c-6.463-.12-12.687 2.138-18.75 4.187l-1 1c-1.64.3-3.288.565-4.937.813-5.746.993-10.743 2.863-16.063 5.187l-2.602 1c-2.592.991-2.592.991-5.398 3l-2.625.5L159 42l-1 2c-1.676.47-3.354.934-5.04 1.371-2.65.85-4.842 2.192-7.214 3.629-1.746 1-1.746 1-5.184 2.438-7.285 3.195-13.234 7.76-19.363 12.792-3.625 2.917-6.826 4.312-11.199 5.77-3.065 1.713-3.065 1.713-4.25 4.25-1.938 3.045-4.047 4.884-6.836 7.125C93.89 85.641 89.492 90.624 85 95.438l-1.828 1.947c-2.745 2.938-5.415 5.88-7.922 9.025C73 109 73 109 70 110c-1.384 1.685-1.384 1.685-2.562 3.75l-1.254 2.047c-1.24 2.183-1.24 2.183-2.051 4.578-1.452 3.365-3.467 5.97-5.695 8.875l-1.249 1.64c-2.973 3.894-2.973 3.894-4.189 5.11l-.312 3.313c-.784 4.201-1.685 4.86-4.688 7.687a161 161 0 0 0-3 7l-2 3-.937 3.313c-1.019 3.534-2.424 6.41-4.063 9.687q-1.034 3.49-2 7-.69 2.135-1.437 4.25l-.684 1.953C33 185 33 185 31.434 186.234c-2.32 2.858-1.89 6.234-1.934 9.766a81 81 0 0 1-.5 8l-1.496 1.427c-2.046 2.14-1.913 3.507-1.98 6.432l-.094 2.883-.055 3.008q-.078 2.93-.164 5.86l-.084 2.833c-.16 3.222-.666 6.366-1.127 9.557-.138 2.98-.14 5.954-.125 8.938l-.012 2.302c.007 4.2.315 8.195.896 12.36.645 6.432.558 12.956.642 19.419.11 7.728.486 13.9 3.599 20.981.693 2.644 1.198 5.312 1.688 8l.392 2.059q.467 2.469.92 4.941h2c.891 2.674 1.477 5.237 2 8h2l-.062 3.375c-.202 3.457-.202 3.457 1.062 5.625l3 1v4a69 69 0 0 0 1 4h2l.078 1.828c.34 5.236.34 5.236 2.86 9.735C49.854 354.19 49.854 354.19 52 354l1 4q41.214.07 82.43.104 19.134.014 38.27.047 16.672.03 33.346.037 8.833.003 17.666.023 8.306.02 16.611.015 3.057 0 6.112.012c2.772.01 5.543.008 8.314.003l2.47.017c4.357.148 4.357.148 7.781-2.258 5.72-2.408 11.905-3.073 18-4v-2h3v-2h2l1-3 1.813-.812c3.11-1.689 4.291-4.253 6.187-7.188l3-2c1.537-6.245 1.222-12.732 1.25-19.125l.063-3.574.015-3.434.028-3.121c-.405-3.126-1.162-4.513-3.356-6.746h-2l-.25-2.375c-.482-2.73-.482-2.73-2.625-3.937-2.228-.842-2.228-.842-5.125-.688v-3h-3v-2h-2v-2l-1.977-.55-2.648-.762-2.602-.739C274 282 274 282 271.625 280.466c-5.418-2.19-10.601-1.894-16.39-1.864l-3.727-.01q-3.888-.002-7.777.017c-2.662.01-5.322.014-7.984 0-3.838-.019-7.675-.016-11.513-.007l-3.623-.019-3.339.029-2.946.007L212 279c-2.539 3.808-2.297 6.91-2.309 11.324l-.076 5.057a2154 2154 0 0 0-.071 7.945c-.022 2.562-.062 5.124-.103 7.686v2.365c-.097 5.464-.94 9.718-3.441 14.623-3.405 1.066-6.67 1.11-10.218 1.053l-3.073-.04-3.283-.064-3.395-.057q-3.543-.062-7.088-.134c-3.627-.07-7.255-.125-10.882-.178l-6.885-.13-3.302-.045-3.045-.07-2.686-.05C150 328 150 328 148 326c-.565-2.655-.738-5.291-1-8h-2V104c3.694-1.847 4.794-2.25 8.646-2.262l2.832-.022 3.101.006 3.302-.018c3.664-.017 7.327-.02 10.991-.023l7.864-.03q8.475-.034 16.949-.048c8.169-.014 16.337-.04 24.506-.068q19.879-.067 39.758-.113 19.312-.045 38.623-.105l2.405-.007 11.942-.037q49.54-.154 99.081-.273l-1-6-3-1-1-5-1.875-.25C406 88 406 88 404.938 86.125L404 84c-2.263-2.802-4.63-3.816-8-5v-3h-2v-2c-3.804-2.201-3.804-2.201-8-3v-4h-3v-2c-4.812-2.29-4.812-2.29-10-3l-.254-1.86c-.558-2.264-.558-2.264-2.523-3.406l-2.16-.984-2.153-1.016c-1.88-.854-1.88-.854-3.91-.734v-2h-7v-2c-2.905-2.042-4.401-3-8-3v-2l-3-1-1-2h-7v-2l-6-1v-2c-4.886-2.123-9.845-3.125-15.04-4.219C312 32 312 32 309 30l-3.062-.5C303 29 303 29 301 27l-2.125.5c-3.298.574-5.623-.118-8.805-1.02-3.082-.715-5.918-.611-9.07-.48v-2h-3v-2z"/><path fill="#FD0065" d="M208 154q12.284-.106 24.567-.155 5.706-.022 11.41-.071 5.515-.048 11.03-.059 2.094-.008 4.189-.032c7.935-.09 14.437.26 21.804 3.317v2l5 1v2l2.375.875C291 164 291 164 293 166v3l3 1c2.283 3.245 2.176 6.125 2 10h2c1.398 4.195 1.184 8.169 1.188 12.563l.037 2.654.005 2.537.013 2.322C301 202 301 202 299 204c-.4 2.323-.74 4.657-1 7h-2l-1 5h-2v3h-2v2h-3v2h-3v2l-7 1v2h-7l-1 3h-63v-3h-5v-70l5-1z"/><path fill="#0E4CB6" d="m475 271 6 2q.04 3.969.063 7.938l.025 2.287A183 183 0 0 1 481 289l-1 1a86 86 0 0 0-.562 4.563l-.254 2.503L479 299l-3 1 .035 1.934.027 2.503.036 2.497C476 309 476 309 475 310a86 86 0 0 0-.562 4.563l-.254 2.503L474 319l-3 1c.03 1.207.03 1.207.063 2.438C471 325 471 325 470 326a236 236 0 0 0-1 7l-3 1-.414 2.172a123 123 0 0 1-1.961 8.078c-.235.871-.47 1.743-.71 2.64L462 349l-3 1 .25 2.188c-.329 3.698-1.894 4.985-4.25 7.812-1.144 2.292-2.055 4.614-3 7l-1 2h-2v5h-2l-1 3h-2v2h-2v5h-3l-.25 1.625c-1.026 3.248-2.716 5.663-4.75 8.375h-2v3h-3v4l-5 1v4h-2v3h-3v2h-2l-.812 1.938C415 415 415 415 412 416l-.875 2c-1.125 2-1.125 2-3.75 2.75L405 421l-1 3h-2v2h-2v3h-3v2c-2.561 2.296-3.48 3-7 3v2h-3v3c-2.647 1.46-3.894 2-7 2v3h-3v2h-5v3c-3 2-3 2-7 2v2l-5 1v2h-5l-1 3h-4v2h-5v2h-5v3h-7v2l-3.875.375c-3.473.315-3.473.315-6.125 2.625-3.322.874-6.666 1.534-10.031 2.219-3.063.54-3.063.54-4.969 2.781-2.566.379-2.566.379-5.562.563-3.532-.065-3.532-.065-6.438 1.437-4.098.605-7.853 1-12 1l-1.864.985c-2.863 1.36-5.145 1.262-8.31 1.258l-3.782.01-4.075-.023h-4.192q-4.387-.003-8.776-.024-5.618-.024-11.237-.02-4.326-.001-8.653-.013-2.07-.005-4.143-.006-2.897-.005-5.794-.022l-3.328-.011c-2.457-.116-4.504-.422-6.846-1.134v-2l-3.246.035-4.191.027-2.143.026c-1.807.009-3.614-.036-5.42-.088l-1-1-3.437-.437C190 476 190 476 188 474l-3.125-.437c-3.665-.533-6.536-1.443-9.941-2.797-2.609-1.033-5.267-1.9-7.934-2.766v-2h-7v-3h-5v-2h-7v-2l-5-1v-2l-2.312-.375C138 455 138 455 135 453v-2h-5v-2l-4-1v-2h-5v-2h-3v-3h-3v-2l-4-1v-2h-3v-2l-3-1v-2l-1.812-.375C101 430 101 430 98 428v-2h-2v-2h-3v-3h-2v-2h-3v-3h-2v-4h2l1-3q2.656-.04 5.313-.062l2.988-.036C100 409 100 409 103 410c1.669-.322 3.335-.658 5-1 2.464-.089 4.93-.122 7.397-.12l2.228-.003q3.687 0 7.374.01l5.293-.001q7.18.001 14.36.013c5.004.006 10.007.006 15.01.008q14.211.004 28.422.021 16.178.016 32.357.022 33.28.016 66.559.05v3q1.47 1.53 3 3v2l-2.992-.035c-1.282-.01-2.563-.018-3.883-.027l-3.867-.036c-3.145-.134-3.145-.134-5.258 1.098-2.255.095-4.513.122-6.77.12l-2.134.003q-3.555 0-7.112-.01l-5.085.001q-6.916-.001-13.834-.013c-4.815-.006-9.63-.006-14.446-.008q-13.685-.005-27.369-.021-15.577-.016-31.153-.022-32.048-.016-64.097-.05a335 335 0 0 0 3.25 3.938l1.828 2.214c2.03 1.951 3.176 2.465 5.922 2.848v2l4 1v2l1.813.375C121 433 121 433 124 435v2l2.5.625c4.401 1.73 8.047 4.136 11.5 7.375l1 3 8 1 1 3 2.625-.187c3.817.212 6.086 1.307 9.375 3.187v2l1.938.313c2.604.584 4.983 1.316 7.5 2.187 3.504 1.201 6.875 2.027 10.562 2.5v3l2.938-.062C186 465 186 465 187 466l3.75.375c3.742.409 6.106 1.499 9.25 3.625h2v2l3.691-.035 4.871-.027 2.424-.026 2.393-.01 2.174-.016c2.447.114 2.447.114 5.619.6 4.581.615 9.082.743 13.7.83l2.794.063q4.386.097 8.772.183l5.974.131q7.294.16 14.588.307v-2l2.52.035c1.086.01 2.173.018 3.293.027l3.269.036c2.983.038 2.983.038 5.918-1.098 2.333-.04 4.667-.044 7 0v-2h13v-2c7.424-3.137 14.438-5.555 22.441-6.64A52 52 0 0 0 333 459v-2c4.808-1.69 9.672-2.978 14.61-4.219 2.542-.631 2.542-.631 4.39-2.781l2.938-.937c3.016-1.047 3.947-1.847 6.062-4.063h3l1-3c1.672-.957 1.672-.957 3.75-1.812 3.11-1.425 4.908-2.683 6.938-5.438C378 432 378 432 380.813 431.625L383 432v-3c5.257-4 5.257-4 8-4l1-3 3-1 1-2h2v-2c5.412-4 5.412-4 8-4l.25-1.687c.989-3.05 2.598-4.965 4.75-7.313h2l.688-2.437L415 399l5-1c1.155-2.471 1.155-2.471 2-5l3-1c1.073-2.262 1.073-2.262 2-5 1.313-3.25 1.313-3.25 3-6 2.688-.875 2.688-.875 5-1l-.375-2.187C435 375 435 375 437.813 372.75l1.656-1.227c2.866-2.851 3.537-6.706 4.531-10.523l1-3h2l1-3 2-1.75c2.669-3.002 2.48-5.292 3-9.25 3.076-8.538 3.076-8.538 6-10 2.099-3.41 2.916-7.174 4-11l1.563-3.625c1.434-3.649 1.685-6.969 1.875-10.875.321-5.782 1.563-9.622 4.562-14.5q1.017-1.991 2-4l2 1z"/><path fill="#0C4EBD" d="M320 107c6.625-.125 6.625-.125 10 1v2h-5v3l2.125.25c3.59.936 5.975 2.457 8.875 4.75v3h3v2h2v2l3 1v4l3 1v2l2.25-.25c2.75.25 2.75.25 5 2.063C356 137 356 137 357 140l2 1a125 125 0 0 1 1.438 4.977c.566 2.038 1.25 3.983 2 5.96l.769 2.047a86 86 0 0 0 1.617 3.844c2.62 6.083 3.372 12.568 3.176 19.172l-2 2-3-1v14l3 1c2.027 2.632 1.995 4.138 1.863 7.496l-.55 3.941-.512 3.934c-.779 3.527-1.818 5.66-3.801 8.629l-.937 2.938c-1.212 3.492-2.827 6.127-5.063 9.062h-2l-.062 2.688c-1.173 4.143-2.776 5.125-6.247 7.43C347 240 347 240 345 240l-.125 1.813c-1.308 3.269-3.795 3.711-6.875 5.187l-1 3 7 1 1 4 8 1 1 6 3 1v2l3 1c3.233 3.233 4.871 4.933 5.438 9.625L366 279c1.851 1.468 1.851 1.468 4 2 2 1 2 1 3.184 4.508a366 366 0 0 1 1.253 4.617l.661 2.464q.974 3.7 1.902 7.411l.522 2.079c2.05 8.401 2.76 16.189 2.486 24.776-.007 2.672.301 4.607.992 7.145l-1 1a240 240 0 0 0-.621 6.09C379 343 379 343 377 345c-.536 2.126-.536 2.126-.875 4.563-1.463 7.93-5.032 14.566-9.125 21.437h-3l.438 2.625c-.502 3.865-.919 4.13-3.813 6.438l-1.934 1.48c-2.167 1.867-2.966 3.717-3.691 6.457h-3l-1 3c-5.531 5.815-11.896 9.448-19 13l-3 2h-4v2l-6 1v-2l-2-1c1.875-4.75 1.875-4.75 3-7h6v-2h2v-2l5-1v-2h5v-3l1.875-.812c2.425-1.144 2.425-1.144 4.125-4.188h2v-2h2v-2h3v-3h2v-2h2v-3h3v-5h2v-2h3v-5h2v-5l3-1v-9h2l-.07-2.195c-.103-5.51.325-9.571 2.07-14.805.683-7.387.683-7.387-2-14-.309-2.637-.309-2.637-.437-5.687-.548-8.274-.548-8.274-4.563-15.313a100 100 0 0 1 0-5h-2v-5l-3-1c-1.648-2.602-2-3.862-2-7h-3v-2h-2v-3h-3v-2h-2c-2.625-2.375-2.625-2.375-5-5v-2l-3-1v-2h-4v-2l-3-1v-2h-5v-2h-2v-7l5-1v-2h2v-2l5-1v-2h2v-2h3v-3h2c1.206-2.332 2.165-4.496 3-7h2l1-3h2v-5h2l.313-2.5c.657-3.35 1.642-6.154 2.968-9.277 1.71-5.287 1.841-10.738 1.817-16.25l-.01-3.897-.026-4.013q-.008-2.049-.013-4.096-.018-4.984-.049-9.967h-2v-7l-3-1c-.73-2.066-.73-2.066-1.187-4.562l-.481-2.504L353 149h-2l-1-5h-2c-3-4.385-3-4.385-3-7h-2v-3l-5-2v-3h-4v-2h-3c-1.687-1.375-1.687-1.375-3-3v-2l-6-1-1 3-7-4 2-3-5-1v-2h2v-2c3.402-2.094 6.053-2.18 10-2v-2z"/><path fill="#0C4DB8" d="m475 271 6 2q.04 3.969.063 7.938l.025 2.287A183 183 0 0 1 481 289l-1 1a86 86 0 0 0-.562 4.563l-.254 2.503L479 299l-3 1 .035 1.934.027 2.503.036 2.497C476 309 476 309 475 310a86 86 0 0 0-.562 4.563l-.254 2.503L474 319l-3 1c.03 1.207.03 1.207.063 2.438C471 325 471 325 470 326a236 236 0 0 0-1 7l-3 1-.414 2.172a123 123 0 0 1-1.961 8.078c-.235.871-.47 1.743-.71 2.64L462 349l-3 1 .25 2.188c-.329 3.698-1.894 4.985-4.25 7.812-1.144 2.292-2.055 4.614-3 7l-1 2h-2v5h-2l-1 3h-2v2h-2v5h-3l-.25 1.625c-1.026 3.248-2.716 5.663-4.75 8.375h-2v3h-3v4l-5 1v4h-2v3h-3v2h-2l-.812 1.938C415 415 415 415 412 416l-.875 2c-1.125 2-1.125 2-3.75 2.75L405 421l-1 3h-2v2h-2v3h-3v2c-2.561 2.296-3.48 3-7 3v2h-3v3c-2.647 1.46-3.894 2-7 2v3h-3v2h-5v3c-3 2-3 2-7 2v2l-5 1v2h-5l-1 3h-4v2h-5v2h-5v3h-7v2l-3.875.375c-3.473.315-3.473.315-6.125 2.625-3.322.874-6.666 1.534-10.031 2.219-3.063.54-3.063.54-4.969 2.781-2.566.379-2.566.379-5.562.563-3.532-.065-3.532-.065-6.438 1.437-4.098.605-7.853 1-12 1l-1.92.985c-2.598 1.268-4.483 1.262-7.368 1.258l-3.195.01-3.431-.023h-3.533q-3.694-.006-7.389-.024c-3.781-.018-7.562-.02-11.344-.02l-7.172-.018-3.443-.003-3.176-.02-2.803-.011C227 481 227 481 225 480v-5l-15-2v-1q2.28-.04 4.563-.062l2.566-.036c2.871.098 2.871.098 5.934.584 4.619.603 9.155.742 13.808.83l2.795.063q4.386.097 8.772.183l5.974.131q7.294.16 14.588.307v-2l2.52.035c1.086.01 2.173.018 3.293.027l3.269.036c2.983.038 2.983.038 5.918-1.098 2.333-.04 4.667-.044 7 0v-2h13v-2c7.424-3.137 14.438-5.555 22.441-6.64A52 52 0 0 0 333 459v-2c4.808-1.69 9.672-2.978 14.61-4.219 2.542-.631 2.542-.631 4.39-2.781l2.938-.937c3.016-1.047 3.947-1.847 6.062-4.063h3l1-3c1.672-.957 1.672-.957 3.75-1.812 3.11-1.425 4.908-2.683 6.938-5.438C378 432 378 432 380.813 431.625L383 432v-3c5.257-4 5.257-4 8-4l1-3 3-1 1-2h2v-2c5.412-4 5.412-4 8-4l.25-1.687c.989-3.05 2.598-4.965 4.75-7.313h2l.688-2.437L415 399l5-1c1.155-2.471 1.155-2.471 2-5l3-1c1.073-2.262 1.073-2.262 2-5 1.313-3.25 1.313-3.25 3-6 2.688-.875 2.688-.875 5-1l-.375-2.187C435 375 435 375 437.813 372.75l1.656-1.227c2.866-2.851 3.537-6.706 4.531-10.523l1-3h2l1-3 2-1.75c2.669-3.002 2.48-5.292 3-9.25 3.076-8.538 3.076-8.538 6-10 2.099-3.41 2.916-7.174 4-11l1.563-3.625c1.434-3.649 1.685-6.969 1.875-10.875.321-5.782 1.563-9.622 4.562-14.5q1.017-1.991 2-4l2 1z"/><path fill="#DC1867" d="M208 154q12.284-.106 24.567-.155 5.706-.022 11.41-.071 5.515-.048 11.03-.059 2.094-.008 4.189-.032c7.935-.09 14.437.26 21.804 3.317v2l5 1v2l2.375.875C291 164 291 164 293 166v3l3 1c2.283 3.245 2.176 6.125 2 10h2c1.398 4.195 1.184 8.169 1.188 12.563l.037 2.654.005 2.537.013 2.322C301 202 301 202 299 204c-.4 2.323-.74 4.657-1 7h-2l-1 5h-2v3h-2v2h-3v2h-3v2l-7 1v2h-7l-1 3h-63v-3h-5v-70l5-1zm5 7c-1.038 3.115-1.151 5.348-1.193 8.617l-.049 3.489c-.044 5.245-.085 10.49-.108 15.736a842 842 0 0 1-.082 8.316 1087 1087 0 0 0-.091 11.967l-.07 3.769.01 3.489-.025 3.075c.383 2.732.383 2.732 2.834 4.372 2.85 1.202 4.678 1.535 7.748 1.51h2.91l3.104-.047 3.207-.013c3.373-.017 6.745-.054 10.118-.093q3.435-.022 6.869-.04 8.409-.052 16.818-.147v-2l7-1v-2l2.875.125c3.227.225 3.227.225 5.125-2.125 2.125-.625 2.125-.625 4-1l1-4h2c2.167-1.833 2.167-1.833 4-4v-2h2c1.591-9.984 3.06-21.777-2-31-2.375-3.046-2.375-3.046-5-5h-2v-2c-3.972-3.13-7.042-3.292-12-3v-2c-6.35-3.426-11.94-3.393-19.059-3.293l-3.467.013c-3.638.017-7.274.054-10.911.093q-3.71.022-7.42.04-9.072.052-18.143.147"/><path fill="#DA115F" d="M41 158h2c.518 4.27-.776 6.59-2.988 10.184-1.551 2.784-2.204 5.745-3.012 8.816a151 151 0 0 1-1.437 4.25l-.684 1.953C34 185 34 185 32.434 186.234c-2.32 2.858-1.89 6.234-1.934 9.766a81 81 0 0 1-.5 8l-1.496 1.427c-2.046 2.14-1.913 3.507-1.98 6.432l-.094 2.883-.055 3.008q-.078 2.93-.164 5.86l-.084 2.833c-.16 3.222-.666 6.366-1.127 9.557-.138 2.98-.14 5.954-.125 8.938l-.012 2.302c.007 4.2.315 8.195.896 12.36.645 6.432.558 12.956.642 19.419.11 7.7.439 13.936 3.599 20.981.456 1.903.861 3.82 1.188 5.75l.48 2.734C32 311 32 311 32 315h2c2 2 2 2 2.125 5.125L36 323h2l1 9 3-1v3q.474 3.505 1 7h2l.813 3.813c.798 3.259 1.537 5.019 4.187 7.187v2h2c.625 2.313.625 2.313 1 5l-2 3 11 1v1c-15.023.86-15.023.86-18.937-2.187C41 359 41 359 40.625 356.188L41 354h-2l-.937-2.437c-.826-2.454-.826-2.454-2.063-3.563-.04-2-.043-4 0-6h-2c-2.945-3.888-3.346-7.256-4-12-1.399-3.561-2.977-6.953-4.687-10.375-1.587-4.381-1.595-8.026-1.313-12.625l-3-1v-9h-2v-15h-2c-.825-7.69-1.16-15.287-1.168-23.02l-.01-3.34q-.007-3.465-.007-6.93c-.003-3.53-.02-7.06-.04-10.59q-.005-3.382-.005-6.765l-.022-3.182c.016-5.169.3-9.312 2.252-14.173.352-3.556.501-7.091.656-10.66.33-3.203 1.007-5.44 2.344-8.34 1.599-4.326 2.45-8.42 3-13h2l.313 1.938L27 186l3 1v-3h2l-.125-2.125c.145-3.329.98-5.743 2.125-8.875l.66-2.172c1.5-4.887 3.145-8.809 6.34-12.828"/><path fill="#DA1562" d="m426 95 1 2h2v3l3 1a56.5 56.5 0 0 1-4 7c-1.886.37-1.886.37-4.227.36l-2.685.013-2.954-.032h-3.104c-3.398-.001-6.796-.025-10.194-.048q-3.527-.009-7.054-.013c-6.198-.011-12.396-.04-18.593-.074-6.321-.03-12.642-.044-18.962-.06q-18.614-.05-37.227-.146v2l-10 2v2c-3.594-.68-7.095-1.548-10.625-2.5-5.78-1.47-11.43-2.16-17.375-2.5v-4q-25.152-.035-50.303-.052-11.677-.007-23.356-.023-10.176-.015-20.353-.02-5.39 0-10.78-.01c-4.009-.009-8.017-.009-12.026-.009l-3.622-.01-3.302.004-2.874-.003c-2.533.024-2.533.024-5.384 1.123v-2h-3v-2l2.468.003q39.548.043 79.095.06h3.029c49.617.022 99.231.04 148.846-.563l2.988-.036Q403.214 101.26 420 101l1-3c2.563-1.687 2.563-1.687 5-3"/><path fill="#023D9D" d="M89 409q2.656-.04 5.313-.062l2.988-.036C100 409 100 409 103 410c1.67-.318 3.336-.654 5-1 2.295-.092 4.593-.13 6.89-.134l2.063-.007q3.41-.007 6.821-.004l4.899-.01q6.645-.014 13.288-.012 5.544-.002 11.088-.008 13.07-.013 26.141-.01 13.5-.001 26.999-.026 11.583-.019 23.167-.018 6.92.002 13.843-.013 6.501-.014 13.004-.003 2.391.003 4.782-.007c2.169-.008 4.337-.003 6.506.005l3.684-.002C274 409 274 409 276 411c2.655.565 5.291.738 8 1v3H98v3l-10 1v-3h-2v-4h2z"/><path fill="#E70A60" d="M208 154q12.284-.106 24.567-.155 5.706-.022 11.41-.071 5.515-.048 11.03-.059 2.094-.008 4.189-.032c7.935-.09 14.437.26 21.804 3.317v2l5 1v2l2.375.875C291 164 291 164 293 166v3l3 1c2.283 3.245 2.176 6.125 2 10h2c1.398 4.195 1.184 8.169 1.188 12.563l.037 2.654.005 2.537.013 2.322C301 202 301 202 299 204c-.4 2.323-.74 4.657-1 7l-.812-1.875C296.044 206.7 296.044 206.7 293 205c-.293-1.92-.293-1.92-.187-4.254l.07-2.592q.115-2.675.234-5.351c.167-6.22-.823-11.036-3.117-16.803l-1-3c-2.504-1.219-2.504-1.219-5-2v-2l-1.937-.437C280 168 280 168 279 167a236 236 0 0 0-7-1v-2c-6.35-2.252-12.362-2.344-19.059-2.414l-3.467-.059c-3.637-.06-7.274-.106-10.911-.152q-3.71-.057-7.42-.117A5813 5813 0 0 0 213 161q-.07 11.879-.104 23.757-.014 5.514-.047 11.03-.032 5.32-.039 10.64-.004 2.032-.021 4.065a756 756 0 0 0-.016 5.681l-.014 3.27c-.017 2.724-.017 2.724 2.241 4.557l-5-1v-63l-7 1v13h-1v-16l5-1z"/><path fill="#DF0E5F" d="m219.777 15.753 3.585.004 1.976-.006c2.16-.003 4.319.007 6.478.019h4.491q4.707.003 9.414.024 6.047.024 12.093.02 4.637.001 9.273.013 2.23.004 4.46.006 3.11.004 6.22.022l3.583.011C284 16 284 16 285 17l3.375.438C292 18 292 18 295 20c2.936.422 2.936.422 6.125.563 5.777.339 5.777.339 6.875 1.437 1.512.391 3.035.74 4.562 1.063l2.504.535L317 24v2l2.937-.062C323 26 323 26 324 27c1.512.391 3.035.74 4.562 1.063l2.504.535L333 29v2h2l.375 2.438L336 36l2 1v2l9 3v2l2.687.375c3.017.57 5.516 1.391 8.313 2.625v2l2.187.375c2.77.615 5.21 1.51 7.813 2.625v2h3v2h3v3h3v2h4c1.75 1.375 1.75 1.375 3 3v2h3v2l1.812.313c2.5.785 3.563 1.656 5.188 3.687v2c-2.929-.628-5.361-1.586-8-3v-4h-3v-2l-3.313-.937A170 170 0 0 1 373 62l-1-3c-2.319-1.463-2.319-1.463-5.063-2.687l-2.785-1.325L362 54v-2h-7v-2c-2.652-1.075-5.284-2.095-8-3v-2l-4-1v-2h-7v-2l-6-1v-2l-2.086-.41a525 525 0 0 1-9.539-2.027l-3.414-.747C312 33 312 33 309 31a221 221 0 0 0-7-2l-3-1-3 1a127 127 0 0 1-7.688-1.437l-2.126-.448A813 813 0 0 1 281 26v-2h-3v-2l-2.19.499c-2.694.48-5.053.588-7.784.523l-2.91-.061-3.104-.082-3.207-.072q-5.059-.116-10.118-.244l-6.869-.159Q233.41 22.21 225 22l1-4h-11c2-2 2-2 4.777-2.247"/><path fill="#0F51BC" d="M409 123v2h2.3c12.075 0 12.075 0 16.887 1l2.731.563L433 127l1 3 2.852-.14c11.444-.332 11.444-.332 15.023 1.952C454 134 454 134 454 137h2l1 5h2v5h2q.974 2.842 1.938 5.688l1.09 3.199A64 64 0 0 1 466 164l3 1v5h2v9l3 1v7h2v12l3 1-1 4-1-1-2 9h-3l-.187-3.937c-.506-5.239-1.823-10.099-3.313-15.125l-.684-2.31c-.875-3.6-.875-3.6-2.816-6.628a92 92 0 0 1-.062-5.062l.027-2.786L465 174l-3-1-1-7h-3v-9h-2a96 96 0 0 1-3.937-6.125l-1.053-1.727C445 139.188 445 139.188 445 136c-.595.01-1.19.02-1.804.032-2.69.041-5.38.067-8.071.093l-2.84.05-2.715.02-2.507.032C425 136 425 136 423 134v-3l-3 1a64 64 0 0 1-4-1 302 302 0 0 0-8.25-.562l-2.258-.131q-2.745-.158-5.492-.307v-2l-2-1 1-2h2v-2c3.053-.981 4.947-.981 8 0"/><path fill="#EC1D70" d="M207 273q12.855-.07 25.712-.104 5.97-.014 11.939-.047 5.757-.032 11.515-.039 2.2-.004 4.4-.021c2.05-.015 4.099-.017 6.148-.016l3.54-.014C273 273 273 273 275 275c2.655.565 5.291.738 8 1v2l7 1v2h3v2h2l-1 5c-3.791-1.45-7.387-3.152-11-5v-2h-10v-2l-61 1c-1.611 3.222-1.2 6.754-1.246 10.297l-.1 5.094q-.071 4.016-.13 8.03c-.04 2.584-.092 5.168-.145 7.75l-.026 2.407c-.1 4.51-.658 8.172-2.353 12.422h-3v-3h-2c-1.055-5.16-1.13-10.097-1.098-15.336l.005-2.665c.005-2.791.018-5.583.03-8.374q.008-2.85.014-5.7.017-6.962.049-13.925l5-1z"/><path fill="#0C4FBC" d="M320 107c6.625-.125 6.625-.125 10 1v2h-5v3l2.125.25c3.59.936 5.975 2.457 8.875 4.75v3h3v2h2v2l3 1v4l3 1v2l2.25-.25c2.75.25 2.75.25 5 2.063C356 137 356 137 357 140l2 1a125 125 0 0 1 1.438 4.977c.566 2.038 1.25 3.983 2 5.96l.769 2.047a86 86 0 0 0 1.617 3.844c2.62 6.083 3.372 12.568 3.176 19.172l-2 2-3-1v14l3 1c2.088 2.677 1.99 4.2 1.828 7.637q-.27 2.028-.578 4.05l-.266 2.088c-.248 1.755-.608 3.493-.984 5.225l-2 1-.113-2.52-.2-3.292-.175-3.27c-.184-2.927-.184-2.927-2.026-4.145-2.292-2.734-1.856-5.665-1.779-9.066l.013-2.14c.017-2.252.054-4.503.092-6.755q.024-2.29.042-4.583.051-5.615.146-11.229h-2v-7l-3-1c-.73-2.066-.73-2.066-1.187-4.562l-.481-2.504L353 149h-2l-1-5h-2c-3-4.385-3-4.385-3-7h-2v-3l-5-2v-3h-4v-2h-3c-1.687-1.375-1.687-1.375-3-3v-2l-6-1-1 3-7-4 2-3-5-1v-2h2v-2c3.402-2.094 6.053-2.18 10-2v-2z"/><path fill="#0853C9" d="M274 409h13v3q1.47 1.53 3 3v2l-2.992-.035c-1.282-.01-2.563-.018-3.883-.027l-3.867-.036c-3.145-.134-3.145-.134-5.258 1.098-2.255.095-4.513.122-6.77.12l-2.134.003q-3.555 0-7.112-.01l-5.085.001q-6.916-.001-13.834-.013c-4.815-.006-9.63-.006-14.446-.008q-13.685-.005-27.369-.021-15.577-.016-31.153-.022-32.048-.016-64.097-.05l7 8c-2.49 1.245-3.41.777-6 0v2h-2v-2h-5v-2h-3v-3h-2l1-3h6v-3h186v-3h-10z"/><path fill="#D61262" d="M268 279h5v2h10v2l2.688.813c3.08 1.104 5.574 2.415 8.312 4.187l1-5 1 2 1.875.875c2.523 1.336 3.623 2.721 5.125 5.125v2h2l1 5h2l.938 2.875c.936 2.986.936 2.986 2.062 5.125 1.71 9.825.399 19.244-1 29h-2l-.312 2.125c-.794 3.317-1.954 5.94-3.688 8.875l-3 1v3h-3v2h-2l-1 3h-2v2h-5l-1 3h-4v2l-3.437.438c-3.37.174-3.37.174-4.563 1.562-1.666.04-3.334.043-5 0v-2h2l-.062-2.437C272 357 272 357 273 356c1.972-.263 3.945-.522 5.922-.746 2.39-.292 4.727-.74 7.078-1.254v-2l2.5-1.437c4.4-2.725 6.894-6.998 9.766-11.2C300 337 300 337 302 336c1.187-3.26 1.13-6.462 1.133-9.902l.004-3.448-.012-3.587.012-3.577-.004-3.45-.004-3.145c-.177-5.51-.177-5.51-3.129-9.891v-3h-2l-1-5h-2v-2l-2.187-.375C290 288 290 288 287.688 287.063c-2.816-1.19-2.816-1.19-6.438-1.938-4.688-1.11-8.915-3.058-13.25-5.125z"/><path fill="#E1206A" d="m62 111 2 1c-.614 2.81-1.475 5.145-2.812 7.688A135 135 0 0 0 57 128.625c-1.64 3.756-3.689 6.985-6 10.375l-1 2.75c-1 2.25-1 2.25-3.125 3.563L45 146v7h-2v5l-2 1c-3.718 5.23-5.568 10.406-6.598 16.691-.502 2.885-1.391 5.566-2.402 8.309h-2v3l-5-1 1-8 3-1-.07-1.758c-.113-4.856.195-8.671 2.07-13.242h3v-7h2l1-5h2v-5h2v-5h3v-5h2l.375-1.75c.631-2.273 1.514-4.175 2.625-6.25h2l.25-2.375C52 122 52 122 54.063 120.688L56 120v-5h2v-2h4z"/><path fill="#CA2171" d="M315.88 103.886h3.609q4.877.001 9.755.013c3.403.006 6.806.006 10.21.008q9.657.005 19.315.021 10.999.015 21.997.022 22.617.016 45.234.05v3l-103 1v2l-10 2v2c-5.55-1.01-11.044-2.224-16-5l1-4c5.94-1.297 11.835-1.133 17.88-1.114"/><path fill="#C71459" d="m19 207 5 1v10h-2l.496 1.672c.564 2.605.605 4.918.573 7.584l-.031 3.175-.054 3.413-.05 3.519a3066 3066 0 0 1-.121 7.363c-.063 3.76-.104 7.518-.145 11.278l-.121 7.152-.029 3.413-.07 3.175-.043 2.79C21.928 275.436 20.8 276.727 19 279v3h-2c-.825-7.69-1.16-15.287-1.168-23.02l-.01-3.34q-.007-3.465-.007-6.93c-.003-3.53-.02-7.06-.04-10.59q-.005-3.382-.005-6.765l-.022-3.182c.016-5.165.288-9.32 2.252-14.173.375-2.327.72-4.66 1-7"/><path fill="#1451B9" d="M340 110q2.346.43 4.688.875l2.636.492C350 112 350 112 352.41 113.035c3.164 1.179 5.975 1.349 9.34 1.528 6.15.337 6.15.337 7.25 1.437 2.515.284 5.03.448 7.555.621C379 117 379 117 382 119c3.097.374 6.17.505 9.285.656C394 120 394 120 396 122l-1.812.813c-2.228 1.001-2.228 1.001-3.297 2.746-3.088 2.354-6.61 1.79-10.329 1.691l-2.314-.016c-3.597-.05-6.767-.265-10.248-1.234v-2h-5v-3l-2.633-.184-3.492-.254c-1.137-.08-2.274-.162-3.445-.246-3.184-.293-6.285-.747-9.43-1.316l-.875-3.375c-.817-3.628-.817-3.628-3.125-5.625"/><path fill="#153FB1" d="M320 107c6.625-.125 6.625-.125 10 1v2h-5v3l2.125.25c3.59.936 5.975 2.457 8.875 4.75v3h3v2h2v2l3 1v4l3 1v2h4l1 3-3 2-2 3-2-4h-2v-3l-5-2v-3h-4v-2h-3c-1.687-1.375-1.687-1.375-3-3v-2l-6-1-1 3-7-4 2-3-5-1v-2h2v-2c3.402-2.094 6.053-2.18 10-2v-2z"/><path fill="#002164" d="M130 409h140v1c-5.54 2.326-10.605 2.283-16.506 2.259l-3.171.01c-3.46.01-6.921.003-10.382-.003l-7.275.005q-7.64.005-15.28-.01c-6.463-.012-12.926-.005-19.39.007a6067 6067 0 0 1-15.055 0q-3.568-.003-7.136.005c-15.375.023-30.512-.653-45.805-2.273z"/><path fill="#DC1865" d="M278 157h3v2l5 1v2l2.375.875C291 164 291 164 293 166v3l3 1c2.283 3.245 2.176 6.125 2 10h2c1.398 4.195 1.184 8.169 1.188 12.563l.037 2.654.005 2.537.013 2.322C301 202 301 202 299 204c-.4 2.323-.74 4.657-1 7l-.812-1.875C296.044 206.7 296.044 206.7 293 205c-.293-1.92-.293-1.92-.187-4.254l.07-2.592q.115-2.675.234-5.351c.147-5.474-.435-9.793-2.4-14.92-.86-2.256-1.298-4.51-1.717-6.883l-1-3-2.312-.375C283 167 283 167 280 165v-3l-3.875.125c-2.18.07-2.18.07-4.125-.125l-2-2 3.438-.937c3.35-.692 3.35-.692 4.562-2.063"/><path fill="#EF247B" d="M208 160q.037 8.85.055 17.7.008 2.997.02 5.992c.058 13.472-.256 26.86-1.075 40.308h-2c-.774-4.064-1.098-7.864-1-12l-2 1q-.037-7.974-.055-15.948-.008-2.704-.02-5.409c-.115-24.21-.115-24.21 1.075-30.643 2-1 2-1 5-1"/><path fill="#E81D6C" d="M180 104q19.871-.034 39.742-.052 9.226-.007 18.453-.023 8.898-.016 17.798-.02 3.4-.003 6.8-.01 4.751-.01 9.503-.009l2.858-.01 2.613.004 2.27-.003C282 104 282 104 285 105l-1 3-102-1v-2z"/><path fill="#DF1C67" d="M32 327c3.692.692 3.692.692 5 2 .141 2.67.042 5.324 0 8h2c.23.615.461 1.23.7 1.863C41.754 343.96 43.02 346.38 48 349c1.313 2.688 1.313 2.688 2 5h2c.625 2.313.625 2.313 1 5l-2 3 11 1v1c-15.023.86-15.023.86-18.937-2.187C41 359 41 359 40.625 356.188L41 354h-2l-.937-2.437c-.826-2.454-.826-2.454-2.063-3.563-.04-2-.043-4 0-6h-2c-3.26-3.888-3.3-7.268-3.203-12.11C31 328 31 328 32 327"/><path fill="#E8065E" d="m105 74 2 1c-3.44 3.536-6.902 6.959-10.687 10.125-3.79 3.264-7.178 6.827-10.563 10.5l-1.538 1.668c-2.258 2.477-4.397 4.947-6.446 7.605L76 107h-2l-1 3h-3l-.875 2.875C68 116 68 116 66 118l-.84 2.234c-1.445 3.445-3.451 6.056-5.722 9.016l-1.249 1.64c-2.973 3.894-2.973 3.894-4.189 5.11l-.312 3.313c-.784 4.201-1.685 4.86-4.688 7.687a442 442 0 0 0-3 7c-1.687 1.938-1.687 1.938-3 3v-4h2l-.25-3.312L45 146a100 100 0 0 1 4-3c.879-1.97 1.532-3.97 2.215-6.016 1.087-2.747 2.928-4.708 4.785-6.984a503 503 0 0 0 2-6 185 185 0 0 1 3.977-6.95c1.246-2.115 1.246-2.115 1.023-5.05l-4 1 2-1a78 78 0 0 0 2-5l1 3h4v-2l2-1 .813-1.937c1.582-2.749 3.272-3.017 6.187-4.063l1-2h2l.188-1.875L81 95l2.375-.937C86.711 92.713 87.332 91.098 89 88l2-1 1-3h2v-2l3.25-1.75c3.053-1.734 5.396-3.613 7.75-6.25"/><path fill="#0946B0" d="M183 467q3.345.466 6.688.938l3.761.527c2.876.433 5.707.931 8.551 1.535v2l3.063-.125c6.69-.024 13.33 1.162 19.937 2.125 1.125 3.75 1.125 3.75 0 6l2 1q-2.375.039-4.75.063l-2.672.035c-2.36-.09-4.323-.429-6.578-1.098v-2l-3.246.035-4.191.027-2.143.026c-1.807.009-3.614-.036-5.42-.088l-1-1-3.437-.437C190 476 190 476 188 474l-3.562-.5L181 473l-1-2h2z"/><path fill="#D81A66" d="M306 337c.23 3.367.34 5.414-1.375 8.375L303 347h-2v3h-3v2h-2l-1 3h-2v2h-5l-1 3h-4v2l-3.437.438c-3.37.174-3.37.174-4.563 1.562-1.666.04-3.334.043-5 0v-2h2l-.062-2.437C272 357 272 357 273 356c1.972-.263 3.945-.522 5.922-.746 2.39-.292 4.727-.74 7.078-1.254v-2l2.5-1.437c4.4-2.725 6.894-6.998 9.766-11.2 2.582-3.519 3.748-3.559 7.734-2.363"/><path fill="#E9206B" d="M96 76c-.375 2.438-.375 2.438-1 5l-2 1-.937 2.875C91.02 87.939 90.348 88.945 88 91l-2 3-2.562 1L81 96l-1 3h-2l-.75 1.938c-1.58 2.606-2.418 2.354-5.25 3.062-1.284 1.984-1.284 1.984-2 4h-2v2h-4v-5h2l2-5h3l.375-1.812C72 96 72 96 74 93h2l2-5h3v-3h2v-2h3v-3h2v-2c2.906-1.257 4.796-2 8-2"/><path fill="#EA0961" d="M212 279c2.333-.381 2.333-.381 5.288-.388l3.348-.029 3.634.019 3.722-.01c3.271-.002 6.542.01 9.813.027 3.316.01 6.631-.013 9.947-.03q3.79.004 7.58.013l3.615-.019 3.376.029 2.963.007c3.188.447 5.114 1.517 7.714 3.381v1l-2.188-.02a4537 4537 0 0 0-20.395-.135c-3.496-.016-6.99-.037-10.486-.071-4.016-.04-8.032-.054-12.048-.067-1.259-.015-2.517-.03-3.813-.047h-3.519l-3.109-.02L215 283c-2.4 3.6-2.444 6.446-2.625 10.625l-.122 2.252a186 186 0 0 0-.206 11.92l.034 2.326q.043 2.216.131 4.43c.114 5.079.114 5.079-1.728 7.16L209 323q.14-8.676.317-17.352.059-2.952.105-5.905c.045-2.827.103-5.654.164-8.481l.035-2.671.06-2.487.04-2.187C210 282 210 282 212 279"/><path fill="#E60960" d="m284 285 11 4v2h2l1 5h2l2 4h1c1.193 6.383 1.184 12.588 1.188 19.063l.037 3.548.005 3.424.013 3.106c-.253 2.979-.992 5.16-2.243 7.859h-2l-.82 1.746c-1.193 2.278-2.521 4.254-4.055 6.317l-1.492 2.035c-1.723 2.007-3.417 3.462-5.633 4.902h-2v2c-3.095 1.45-5.879 2.187-9.25 2.563-3.54.02-3.54.02-4.75 1.437-2.67.141-5.324.042-8 0 2.535-3.803 3.584-3.934 8-5 3.994-.448 7.989-.753 12-1v-2h3v-2h2l1-4 1.875-.187c2.375-.622 2.375-.622 3.188-3.188L296 338c1.5-1.812 1.5-1.812 3-3h2q.075-6.726.11-13.452.015-2.288.04-4.574c.025-2.195.036-4.389.045-6.583l.032-4c-.21-3.123-.56-4.797-2.227-7.391h-2l-.062-1.812c-.843-2.621-.843-2.621-4.5-3.938L289 292v-3h-3v-2h-2z"/><path fill="#074AB5" d="M274 409h13v3q1.47 1.53 3 3v2l-191-1v4l-3-1 2-1v-3h186v-3h-10z"/><path fill="#D71D67" d="m293 205 4 2-1 8-3 1v3h-2v2h-3v2h-3v2l-3.25.438c-3.48.427-3.48.427-5.687 1.156-2.55.502-4.303.096-6.813-.531l-2.422-.59L265 225v-2l7-1v-2c3.98-1.17 7.916-2.257 12-3l1-4h2l1-3c1.438-1.687 1.438-1.687 3-3h2z"/><path fill="#E71461" d="m228 17-2 1c-.658 3.03-.658 3.03-1 6-6.483 2.631-12.023 3.393-19 3v-3l-3.937.438c-.731.08-1.462.162-2.215.246-1.86.135-1.86.135-2.848 1.316-1.853.072-3.708.084-5.562.063l-3.067-.028L186 26v-2c5.373-3.394 9.87-3.327 16-3v-2c8.494-1.875 17.324-2.17 26-2"/><path fill="#E51B66" d="m335 31 10 3v2l2.188.375c2.77.615 5.209 1.51 7.812 2.625v2l2.313.375C360 42 360 42 363 44v2h5v4c-4.028 1.15-6.281.963-10-1l-1-2c-2.344-.91-2.344-.91-5.062-1.625-.92-.26-1.839-.52-2.786-.79L347 44v-2l-2.25-.375c-2.551-.58-4.477-1.362-6.75-2.625v-2l-4-2z"/><path fill="#124BBA" d="M342 235c2 2 2 2 2.125 4.625L344 242l-6 1-1 9 7 1v2h-5v3h-3v-2l-3-1v-2h-5v-2h-2v-7l5-1v-2h2v-2l5-1v-2c1.875-.625 1.875-.625 4-1"/><path fill="#BA104B" d="M307 302c2.363 2.036 3.824 3.375 4.68 6.418.637 9.034-.4 17.654-1.68 26.582h-2l-1 5c-2.062-1.687-2.062-1.687-4-4 .25-2.75.25-2.75 1-5l1.938.563L308 332l1-1h-3c-2.001-4.003-1.185-9.1-1.187-13.5l-.038-3.246-.005-3.098-.013-2.85C305 306 305 306 307 304z"/><path fill="#0853C9" d="M325 110a788 788 0 0 1 7.313-.125c.69-.017 1.38-.034 2.091-.05 3.767-.037 5.38.031 8.596 2.175.688 3.625.688 3.625 1 7 1.178.09 1.178.09 2.379.184 5.575.444 11.097.937 16.621 1.816v2l-3.875-.5c-5.053-.57-10.046-.595-15.125-.5l2 8h-2l-.375-1.937L343 126l-2-1v-2h-2v-2h-3l-.687-1.812c-2.046-3.41-4.88-4.762-8.625-5.876L325 113z"/><path fill="#D00856" d="M208 154h36v2l2 1h-20l-1 3-22 1v13h-1v-16l5-1z"/><path fill="#C0155C" d="M293 180h2v2h3v-2h2c1.398 4.195 1.184 8.169 1.188 12.563l.037 2.654.005 2.537.013 2.322C301 202 301 202 299 204c-.4 2.323-.74 4.657-1 7l-.812-1.875C296.044 206.7 296.044 206.7 293 205c-.34-2.522-.34-2.522-.293-5.664l.03-3.399.075-3.562.042-3.586q.053-4.395.146-8.789"/><path fill="#0C4CB7" d="M340 110q2.346.43 4.688.875l2.636.492C350 112 350 112 352.41 113.04c4.17 1.547 8.417 1.42 12.824 1.617L368 115l1 2h-5v4h10l1 4h-3v-2h-9v-2l-2.633-.184-3.492-.254c-1.137-.08-2.274-.162-3.445-.246-3.184-.293-6.285-.747-9.43-1.316l-.875-3.375c-.817-3.628-.817-3.628-3.125-5.625"/><path fill="#0851C3" d="m475 271 6 2q.08 3.906.125 7.813c.017.737.034 1.475.05 2.236.036 3.863.019 5.66-2.175 8.951-3.125.188-3.125.188-6 0l.063 2.188c-.133 5.945-2.135 11.245-4.063 16.812h-2c-.569-6.828.56-11.137 4-17q1.014-1.993 2-4l2 1z"/><path fill="#084AB2" d="m362 272 2 1v2h2v4l1.875.938C372 282 372 282 373.125 284.5c1.064 4.256 1.05 8.141.875 12.5h-4v-5h-2l-1 3c-2-2-2-2-2.125-4.625L365 288h-2v-5h-2a758 758 0 0 1-.062-4.937l-.036-2.778C361 273 361 273 362 272"/><path fill="#0241A4" d="M275 412h9v3H138v-1l137-1z"/><path fill="#D7075E" d="M244 155c3.27-.058 6.541-.094 9.813-.125l2.814-.05 2.705-.02 2.491-.032C264 155 264 155 267 157v3h-42l1-3 18-1z"/><path fill="#D91464" d="m426 95 1 2h2v3l3 1a56.5 56.5 0 0 1-4 7h-2v-4h-43v-2l37-1 1-3c2.563-1.687 2.563-1.687 5-3"/><path fill="#D51860" d="M392 63c2.5 1.375 2.5 1.375 5 3v2h3v2h2v3l5 2v3h3v2l2 1-2 1 1 4h-2v-2h-3v-2l-2.375-.75c-2.948-1.404-3.527-2.257-4.625-5.25h-2v-2h-3v-2h-2c-1.125-6.75-1.125-6.75 0-9"/><path fill="#B22E83" d="m309.867 104.88 2.47.006h2.79l3.033.016 3.09.005c3.27.005 6.542.018 9.812.03q3.318.009 6.635.014 8.152.017 16.303.049c-3.585 1.934-6.199 2.298-10.297 2.414l-3.652.117-3.801.094-3.848.117q-4.701.141-9.402.258v2l-10 2v2h-4l1-7-3-1c1-1 1-1 2.867-1.12"/><path fill="#0951C2" d="M99 416h34v1c-10.357.762-20.614 1.134-31 1l7 8c-2.49 1.245-3.41.777-6 0v2h-2v-2h-5v-2h-3v-3h-2l1-3c4.75.875 4.75.875 7 2z"/><path fill="#E7095E" d="M28 297c2.056 3.085 2.511 4.848 3.125 8.438l.508 2.87C32 311 32 311 32 315h2c2 2 2 2 2.125 5.125L36 323h2l1 9 3-1v3q.474 3.505 1 7h2l1 7c-3.174-1.095-3.99-1.982-5.75-4.937C39 340 39 340 39 337h-2l-.586-6.055c-.278-2.172-.278-2.172-2.414-3.945-.125-2.625-.125-2.625 0-5h-2c-.673-3.416-1.337-6.833-2-10.25l-.578-2.934-.547-2.832-.508-2.602C28 301 28 301 28 297"/><path fill="#EB2073" d="m142 43 1 3-2.937 1.375c-3.134 1.283-3.134 1.283-4.063 3.625h-5v2h-5l-.375 1.875C125 57 125 57 123 59h-3v2h-4v2h-5v-3h2v-2c4.385-3 4.385-3 7-3v-2h3v-2l5-1v-2l2.047-.586 2.703-.789 2.672-.773c2.339-.773 4.412-1.688 6.578-2.852"/><path fill="#0552C6" d="M324 462v1l-3.312.875c-3.728.944-3.728.944-6.688 3.125-5.236 2.12-10.394 3.404-16 4l5 2-1 3h-8v-3l-1.66.219c-7.8.913-15.498.875-23.34.781v-2l2.52.035 3.293.027 3.269.036c2.983.038 2.983.038 5.918-1.098 2.333-.04 4.667-.044 7 0v-2h13v-2c13.633-5.74 13.633-5.74 20-5"/><path fill="#1654C5" d="M225 478h47l-2 3c-1.86.367-1.86.367-4.143.356l-2.588.01-2.8-.038-2.87-.006q-3.006-.01-6.012-.04c-3.074-.032-6.149-.042-9.224-.048l-5.832-.03-2.8-.014-2.588-.029-2.284-.02C227 481 227 481 225 480z"/><path fill="#EC0963" d="M25 207h1c.03 3.52.047 7.042.063 10.563l.025 3.001c.017 5.271-.301 10.216-1.088 15.436-.14 2.98-.14 5.954-.125 8.938l-.012 2.302c.007 4.226.294 8.274.874 12.467.591 5.16.733 10.357.95 15.543l.182 3.547.143 3.406.14 3.083c-.156 2.79-.71 4.352-2.152 6.714-1.146-3.437-1.355-6.666-1.555-10.25l-.127-2.245c-.469-9.173-.468-18.349-.448-27.531q.005-4.537-.007-9.076 0-2.887.004-5.773l-.006-2.74c.024-6.27.024-6.27 1.139-7.385.157-1.486.25-2.98.316-4.473l.127-2.724.12-2.865.13-2.877q.16-3.53.307-7.061"/><path fill="#093F9F" d="M285 473h9v3l3 1c-2.089 2.089-6.112 1.748-9 2h-4l-1.922.992c-2.588 1.255-4.47 1.208-7.328 1.133l-2.703-.055L270 481c0-3 0-3 2-6 3.04-.293 3.04-.293 6.625-.187l3.602.082L285 475z"/><path fill="#064EC1" d="M438 372c0 3.804-1.158 6.73-3 10l-5 5c-1.336 3.167-1.336 3.167-2 6h-2l-.25 1.813c-1.168 3.407-3.634 4.629-6.75 6.187l-.25 1.938L418 405c-1.977.73-3.98 1.394-6 2-1.837 1.499-1.837 1.499-3 3l-2-1a105 105 0 0 1 4-5h2l.688-2.437L415 399l5-1c1.155-2.471 1.155-2.471 2-5l3-1c1.073-2.262 1.073-2.262 2-5 1.313-3.25 1.313-3.25 3-6 2.688-.875 2.688-.875 5-1l-.187-2.312C435 375 435 375 436.5 373.188z"/><path fill="#304099" d="M320 107c6.625-.125 6.625-.125 10 1v2h-6l.688 2.125c.41 3.778-.846 5.615-2.688 8.875l-1 3-7-4 2-3-5-1v-2h2v-2c3.402-2.094 6.053-2.18 10-2v-2z"/><path fill="#E60961" d="M41 158h2c.518 4.27-.776 6.59-2.988 10.184-1.551 2.784-2.204 5.745-3.012 8.816a151 151 0 0 1-1.437 4.25l-.684 1.953C34 185 34 185 32.438 186.227c-2.342 2.888-1.935 6.327-2 9.898-.063 2.65-.204 5.23-.438 7.875l-2 1c-.25-7.29.277-13.907 2-21h2l-.125-2.125c.145-3.329.98-5.743 2.125-8.875l.66-2.172c1.5-4.887 3.145-8.809 6.34-12.828"/><path fill="#E6236B" d="m62 111 2 1c-.628 2.906-1.558 5.308-2.937 7.938-1.198 2.296-2.15 4.333-2.938 6.812-1.634 3.268-3.997 4.49-7.125 6.25h-2v-6h2l.25-2.375C52 122 52 122 54.063 120.688L56 120v-5h2v-2h4z"/><path fill="#1854BF" d="m359 210 2 1c.348 4.34-.664 6.903-2.75 10.688-.51.952-1.02 1.905-1.547 2.886-1.8 2.564-2.94 3.155-5.703 4.426l-1 3-3-1 1-7h2l1-3h2v-5h2v-2a91 91 0 0 1 4-4"/><path fill="#DA1562" d="m208 274 4 2-3 1-1 2 4 1-1 2a244 244 0 0 0-.316 8.508l-.063 2.547q-.097 4.035-.184 8.07l-.13 5.465q-.161 6.705-.307 13.41h-2l-.076-3.21q-.143-5.92-.296-11.841-.065-2.557-.125-5.116-.088-3.686-.187-7.372l-.05-2.292c-.115-4.142-.476-8.102-1.266-12.169h-2l-1 5h-1c-.043-2-.04-4 0-6 1-1 1-1 3.563-1.062L208 276z"/><path fill="#D91462" d="M42 347c3.786.54 5.554 2.117 8 5v2h2c.625 2.313.625 2.313 1 5l-2 3 11 1v1c-2.438.081-4.874.14-7.312.188l-2.092.076c-5.153.074-5.153.074-7.576-1.776L44 361h2l1-7h-3v-2h-3z"/><path fill="#1754C5" d="M434 130c13.938-.687 13.938-.687 17.875 1.625C454 134 454 134 454.375 137.25L454 140l-8-1-1-3h-2v-3h-9z"/><path fill="#DB1062" d="m132 52 2 1c-5.146 6.339-10.625 12.258-18 16-2.8.184-2.8.184-5 0v-3l5-2v-3h4v-2l2.438-1.437C125.292 56.2 125.292 56.2 126 53c1.207.03 1.207.03 2.438.063 2.496.233 2.496.233 3.562-1.063"/><path fill="#054FBA" d="m361 177 2 1v14l3 1c2.088 2.677 1.99 4.2 1.828 7.637q-.27 2.028-.578 4.05l-.266 2.088c-.248 1.755-.608 3.493-.984 5.225l-2 1-.113-2.52-.2-3.292-.175-3.27c-.204-2.925-.204-2.925-2.04-4.295C360 198 360 198 359.753 195.732l.174-2.619.166-2.842.22-2.958.186-2.995q.23-3.66.502-7.318"/><path fill="#DC206E" d="M279 276h4v2l7 1v2h3v2h2l-1 5c-3.791-1.45-7.387-3.152-11-5v-2h-10l-1-3h7z"/><path fill="#DF1A67" d="M410 81h2v2h3v2h2v3h2v2h3v3h2v2l2 1c-2 2-2 2-4.812 2.563-3.612-.638-3.978-1.06-6.063-3.876C413.386 92.08 413 91.236 413 88h-2v-5l-2-1z"/><path fill="#D20C32" d="M16 220h1v17h2v32l-3-2c-.36-2.025-.36-2.025-.34-4.542v-2.85l.047-3.085.013-3.152c.017-3.332.054-6.664.092-9.996q.024-3.382.042-6.766.05-8.304.146-16.609"/><path fill="#0652C0" d="m430 127 4 1v5h9v3q-4.437.08-8.875.125l-2.55.05-2.442.02-2.254.032C425 136 425 136 423 134c.375-2.125.375-2.125 1-4h7z"/><path fill="#E61867" d="M158.848 32.902 165 33v4c-3.371 1.498-5.204 2-9 2v2l-2.437.375L151 42l-1 2h-6l1-2h2l.25-1.863C148 38 148 38 149.813 36.77l2.187-.958c6.445-2.888 6.445-2.888 6.848-2.91"/><path fill="#EA1860" d="M317 24v2l2.75-.125c3.15.121 4.704.333 7.25 2.125l1 3c-5.415 2.215-5.415 2.215-8.375 1.125L318 31v-2h-7v-3h-6v-2c3.956-1.217 8.206-1.897 12 0"/><path fill="#0E4BB6" d="M454 137h2l1 5h2l-1 3-2-1v-2h-2l.691 2.52.872 3.292.878 3.27C457 154 457 154 456 157a1678 1678 0 0 1-3.875-6.187l-1.105-1.752c-2.029-3.264-3.725-6.442-5.02-10.061l8 1z"/><path fill="#E21364" d="M72 103h3c-6.382 13.255-6.382 13.255-12 17l-1.5 3.063C60 126 60 126 57 127a292 292 0 0 1 3.07-6.035l1.055-2.028 1.07-2.035c1-2.018 1-2.018.805-4.902l-4 1 2-1a78 78 0 0 0 2-5l1 3h4v-2l2-1c1.134-2.017 1.134-2.017 2-4"/><path fill="#C22B7B" d="m314.375 103.938 2.809.013q3.408.018 6.816.049v1l-16 1 2 1-1 6c-4.776-.468-8.045-1.243-12-4l1-4c5.483-1.157 10.803-1.114 16.375-1.062"/><path fill="#0543AB" d="m308.066 467.902 2.497.036 2.503.027L315 468v3l2 1-1.715.621-2.223.817-2.214.808c-1.831.608-1.831.608-2.848 1.754-2 .04-4 .043-6 0l1-3-6-1 1-2q3.491-.562 7-1c1-1 1-1 3.066-1.098"/><path fill="#0F49AE" d="M98 426h3v2h2v-2l6 1 1 3a396 396 0 0 0 5 3v2l3 1h-5v2h-2v-2h-3v-2l-3-1v-2l-1.812-.375C101 430 101 430 98 428z"/><path fill="#D22573" d="m293 205 4 2-1 8-3 1v3h-2v2h-5c.313-2.875.313-2.875 1-6l3-2c1.002-1.948 1.002-1.948 1.688-4.125l.761-2.195z"/><path fill="#2A60CB" d="M325 110a788 788 0 0 1 7.313-.125c.69-.017 1.38-.034 2.091-.05 3.767-.037 5.38.031 8.596 2.175.688 2.125.688 2.125 1 4-2.839 1.42-4.708.72-7.812.188l-3.145-.52c-2.86-.628-5.366-1.495-8.043-2.668z"/><path fill="#DC1864" d="M28 312h3l1 10h2c.25 2.313.25 2.313 0 5-2 1.813-2 1.813-4 3l-1.437-3.437c-1.2-3.32-1.2-3.32-2.563-4.563-.273-5.736-.273-5.736 0-8z"/><path fill="#BD2375" d="M324 104q8.993-.074 17.987-.11 3.057-.015 6.113-.04c2.937-.025 5.873-.037 8.81-.045l2.74-.032c5.184 0 9.442.537 14.35 2.227v1h-24v-1l-26-1z"/><path fill="#DD1362" d="M268 279h5v2h10v2l2.688.813c3.08 1.104 5.574 2.415 8.312 4.187l1-5 1 2h2c.625 2.875.625 2.875 1 6l-2 2v-2h-2v-2l-2.187-.375C290 288 290 288 287.688 287.063c-2.816-1.19-2.816-1.19-6.438-1.938-4.688-1.11-8.915-3.058-13.25-5.125z"/><path fill="#DF005E" d="m219.784 15.76 3.593.013h1.982c2.164 0 4.328.016 6.493.032l4.497.008c3.95.008 7.898.028 11.847.05 4.028.02 8.057.03 12.085.04 7.907.02 15.813.055 23.719.097l1 2-6 1v-2l-2.153.217c-12.56 1.087-25.125.893-37.722.845q-3.518-.008-7.035-.013A9428 9428 0 0 1 215 18c2-2 2-2 4.784-2.24"/><path fill="#0140A2" d="M302 404h6v2c1.96 1.637 1.96 1.637 4 3-1 1-1 1-4.562 1.063L304 410v2h-9l-1-5h7z"/><path fill="#EC0860" d="m291 179 2 1c1.2 4.088 1.134 8.14 1.125 12.375l.008 3.836c-.13 3.699-.54 7.143-1.133 10.789h-2l-1 3c-1.437 1.688-1.437 1.688-3 3h-2l-1 4-3-1c1.556-3.03 2.478-4.722 5.531-6.348 2.632-1.424 2.632-1.424 3.395-3.972 1.23-8.919 1.266-17.698 1.074-26.68"/><path fill="#2066D7" d="M373 312h3v25l-3 1c-.924-5.972-.989-11.482-.562-17.5l.158-2.492q.194-3.005.404-6.008"/><path fill="#084ECA" d="m390 120 6 1c-5.805 5.958-5.805 5.958-10.773 6.133q-2.301.003-4.602-.008l-2.328.012-2.258-.004-2.056-.004c-2.095-.136-3.965-.561-5.983-1.129v-2h-5v-1h9v2q2.595-.214 5.188-.437l2.917-.247c3.992-.427 3.992-.427 7.895-1.316z"/><path fill="#E92774" d="m79 93 2 1-2 4h-3l-1 5-3 1c-1.209 2-1.209 2-2 4h-2v2h-4v-5h2l1-2c1.723-1.55 3.514-3 5.309-4.465C74.234 96.913 74.234 96.913 76 94z"/><path fill="#0C43B2" d="M341 126h3v4l3 1v2h4l1 3-3 2-2 3-2-4h-2v-3l-5-2 3-1z"/><path fill="#EC1C6B" d="M157 104c3.792-.029 7.583-.047 11.375-.062l3.273-.026 3.125-.01 2.889-.016C180 104 180 104 182 105v2c-5.11.854-9.951 1.098-15.125 1-4.409-.082-8.565-.073-12.875 1l-1-2h3z"/><path fill="#D61463" d="M183 23h6l-3 1v2q2.719-.211 5.438-.437l3.058-.247c2.44-.048 2.44-.048 3.504-1.316 2.67-.141 5.324-.042 8 0v3l-6.152.684c-1.86.135-1.86.135-2.848 1.316-2.353.073-4.708.084-7.062.063l-3.91-.028L183 29l1-3z"/><path fill="#EE0964" d="M280 218c-2 2-2 2-5.125 2.125L272 220v2l-7 1v2h-46c4.5-2.25 4.5-2.25 8.218-2.135l2.486.06 2.655.098 2.74.076c2.885.082 5.768.179 8.651.276q2.935.088 5.871.172 7.19.212 14.379.453v-2c12.069-5.31 12.069-5.31 16-4"/><path fill="#054EBE" d="m468 191 3 1 .438 2.875c.391 3.018.391 3.018 1.562 5.125l5-1 1 5-2-1-2 9h-3l-.113-1.8c-.53-6.671-1.953-12.803-3.887-19.2"/><path fill="#0341B3" d="m475 271 6 2v16l-2 1-1-7-3-1z"/><path fill="#EA2674" d="M96 76c-.508 3.761-1.113 5.54-4 8l-1.937 2.188C88 88 88 88 84 88l2-8h2v-2c2.906-1.257 4.796-2 8-2"/><path fill="#064CB6" d="M359 115h9l1 2h-5v4h10l1 4h-3v-2h-9v-2h-7v-3l3-2z"/><path fill="#084CB8" d="M472 184h2v3h2v13l-5-1q-.04-3.469-.062-6.937l-.036-3.903C471 185 471 185 472 184"/><path fill="#1E4DA8" d="M331 241c2.5 1.75 2.5 1.75 5 4v4a328 328 0 0 1-3.875 1.563l-2.18.878C328 252 328 252 326 251v-7l5-1z"/><path fill="#DD1869" d="M32 173h2c.24 4.087-.577 7.177-2 11h-2v3l-5-1c.35-5.427.35-5.427 1-8 1.938-1.312 1.938-1.312 4-2z"/><path fill="#1B59C1" d="M92 418c2.763.523 5.326 1.109 8 2l1 2 3 1-1 5h-2v-2h-5v-2h-3v-3h-2z"/><path fill="#D5125C" d="M293 180h2v21l6-1-.937 1.563c-1.354 3.104-1.677 6.088-2.063 9.437l-.812-1.875C296.044 206.7 296.044 206.7 293 205c-.34-2.522-.34-2.522-.293-5.664l.03-3.399.075-3.562.042-3.586q.053-4.395.146-8.789"/><path fill="#DC185D" d="m55 129 2 1-1.937 2.313c-2.205 2.57-2.205 2.57-3.063 5.687h-3v2l-3 1v-3h-2v-3h2l.375-1.937L47 131l2-1v3z"/><path fill="#0543B4" d="m368 300 3 1 1 6 2-7 2 1v9l-3 1v6c-2.416-1.854-2.964-2.786-3.477-5.848l-.148-3.214c-.096-4.123-.096-4.123-1.375-7.938"/><path fill="#CC0D55" d="m23 189 2 1v2h2v10h-3v-3l-1.375 1.375L19 204c.63-3.258 1.307-6.505 2-9.75l.5-2.36C22 190 22 190 23 189"/><path fill="#064AB2" d="M409 123v2l-5-1 1 4h10v2h-15v-2l-2-1 1-2h2v-2c3.053-.981 4.947-.981 8 0"/><path fill="#703C91" d="M310 107q2.406-.04 4.813-.062l2.707-.036C320 107 320 107 323 108v2l-10 2v2h-4z"/><path fill="#BE1045" d="M298 180h2l1 9h-3l-1 4h-2v-11h3z"/><path fill="#EA1A6B" d="m182 24 3 2v2l-2 1v3l-11-1v-2h3v-3h7z"/><path fill="#2055C3" d="m342 235 2 4h-3v3h-4v2l-5-1 1-4 5-1v-2z"/><path fill="#0D44BD" d="m347 227 .375 1.688c.685 2.533 1.616 4.891 2.625 7.312-3.75 3-3.75 3-6 3l-2-3h-2v-2h3v-3h2z"/><path fill="#144BBA" d="M336 121h3v2h2v2l2 1h-2v5h-3v-2h-4c-.2-3.716-.152-4.772 2-8"/><path fill="#1860CA" d="m363 178 4 1-.062 2.813c-.096 3.21-.096 3.21 1.062 6.187-.937 2.188-.937 2.188-2 4h-3z"/><path fill="#2749B6" d="m324 110 1 3h4v9c-1.666.043-3.334.04-5 0-1-1-1-1-1.125-3.437C323 116 323 116 324 114z"/><path fill="#0950BE" d="M180 465c2-.043 4-.04 6 0l1 1c2.059.28 4.117.447 6.188.621L195 467l1 2-13-1-1 3-7-1v-2l5-1z"/><path fill="#1350C1" d="M361 445c2.125.375 2.125.375 4 1v2l5 1-1 2c-8.103 1.461-8.103 1.461-12 0 1.152-2.468 2.048-4.048 4-6"/><path fill="#1454BC" d="M372 343c2.152 3.228 2.2 4.284 2 8h-3l-1 4h-2v-10z"/><path fill="#CE1562" d="M309 308h1c2.004 7.243 2.004 12.757 0 20l-2-1q-.04-4.187-.062-8.375l-.026-2.406c-.025-5.992-.025-5.992 1.088-8.219"/><path fill="#1757BD" d="M142 453h6v2h5l-3 4-7-1v-2h-2z"/><path fill="#C91256" d="M298 286a141 141 0 0 1 5 5v2h2l1 4h-2l-2 2v-3h-4z"/><path fill="#AD0C50" d="M244 154v2l2 1h-20l1-2c5.645-1.201 11.249-1.104 17-1"/><path fill="#0551C2" d="M304 410h12c-7.313 3.657-12.92 4.259-21 4v-2h9z"/><path fill="#E11E6A" d="M22 199h2c1.804 2.76 2.013 3.89 1.625 7.25L25 209l-6-2c.547-3.375 1.055-5.082 3-8"/><path fill="#0155A1" d="m361 177 2 1v14h2l-1 3h-2v3h-2z"/><path fill="#DF1868" d="m91 84 1 3-1.875 1.813C87.863 91.008 87.863 91.008 86 94l-2.562 1L81 96l-1 3h-2l-2 4-1-2 1-3h3l.313-1.937L80 94l3-1v-2c5.476-5 5.476-5 8-5z"/><path fill="#0E4EBB" d="m296 470 1.813.938c2.277 1.164 2.277 1.164 5.187 2.062l-1 3h-8v-3h-9v-1l2.152-.184 2.786-.253 2.777-.247c2.247-.076 2.247-.076 3.285-1.316"/><path fill="#254599" d="M88 410h4l-1 6 5 1c-3.088 1.765-4.233 2-8 2v-3h-2v-4h2z"/><path fill="#0F2FA3" d="M340 110q2.376.467 4.75.938l2.672.527c2.21.459 4.393.968 6.578 1.535l-1 2h-4v3h-4v-3h-2l-1-3z"/><path fill="#1355BC" d="M372 328c1.607 3.215 1.057 6.436 1 10l3-1-1 3h-2l-.375 1.938L372 344l-2 1c-.369-11.522-.369-11.522 2-17"/><path fill="#E70B62" d="m281 24 24 2v4l-2.812-1.062c-3.168-1.262-3.168-1.262-6.188.062a127 127 0 0 1-7.687-1.437l-2.127-.448A813 813 0 0 1 281 26z"/><path fill="#195AB8" d="M113 436h6v2h3l1 3-2 2h-3v-2h-3v-2h-2z"/><path fill="#0739AE" d="m479 208 2 1v18h-2l-1 3z"/><path fill="#E62978" d="m293 205 4 2-1 6h-5c.875-5.75.875-5.75 2-8m-6 10 2 1-2 1z"/><path fill="#D81D60" d="M37 150h2v3h2c-.087 1.46-.195 2.918-.312 4.375l-.176 2.46C40 162 40 162 37 164v-3h2l-1-5-2 3h-2v-4h2z"/><path fill="#F1155E" d="M123 51h2v5h-2v2c-6.75 2.125-6.75 2.125-9 1v2l-3-1h2v-2c4.385-3 4.385-3 7-3v-2h3z"/><path fill="#0D48BA" d="M198 470h4c-.375 2.938-.375 2.938-1 6-2.52 1.26-3.854.919-6.625.563l-2.477-.31L190 476l2-1v-2l2.438-.375L197 472z"/><path fill="#044CBB" d="M377 312h2c1.428 7.138 1.737 13.157-1 20h-1z"/><path fill="#1857BF" d="M368 292h2v5l4 1-1 10-2-1-1-6-2-1z"/><path fill="#104EBD" d="m363 280 5 1v9l-5-2z"/><path fill="#D10E65" d="M207 155h4c0 2 0 2-1.187 3.563C208 160 208 160 203 161v13h-1v-16l5-1z"/><path fill="#074FBA" d="m341 454 3 1-1.937.813c-2.394 1.074-2.394 1.074-3.063 4.187-1.875 1.25-1.875 1.25-4 2l-6-2 4-1v-2l2.875-.937c2.986-.937 2.986-.937 5.125-2.063"/><path fill="#342E84" d="m322 111-1 4h-4l-1 2-5-1v-2h2v-2c2.957-1.478 5.742-1.06 9-1"/><path fill="#EA0561" d="m127 56 4 1c-13.107 12-13.107 12-17 12v-2c3.19-2.32 6.417-4.346 10-6v-2h2z"/><path fill="#E61D6E" d="m149 319 3 1v2l3-1a67 67 0 0 1 4.563-.187l2.378-.043C164 321 164 321 166 323l-19 1v-4z"/><path fill="#465AC2" d="M325 110h14v2c-3.15 1.05-5.388 1.101-8.687 1.063l-3.012-.028L325 113z"/><path fill="#034EC3" d="M158 455h2v2l1.938.313c2.604.584 4.983 1.316 7.5 2.187 3.504 1.201 6.875 2.027 10.562 2.5v3h-3v-2l-3.125-.437L170 462l-3.375-.437L164 461l-1-2a78 78 0 0 0-5-2z"/><path fill="#064EB6" d="m350 258 4 2v2h2v2l-5 1v5l-1-2h-2c-.125-2.875-.125-2.875 0-6l2-2z"/><path fill="#195BCC" d="m395.723 121.902 3.34.035 3.347.028L405 122l-4 1v2c-2.957 1.478-5.742 1.06-9 1 0-3.964 0-3.964 3.723-4.098"/><path fill="#064BB4" d="m284 473 1 2-2.773.148-3.602.227-3.586.21c-3.145.117-3.145.117-5.039 2.415-2.625-.375-2.625-.375-5-1v-3z"/><path fill="#043FAB" d="M473 292h6v7l-3 1v-2l-3-1z"/><path fill="#0853BA" d="M364 169h2l1 10c-2.937-.75-2.937-.75-6-2-.875-2.125-.875-2.125-1-4h2z"/><path fill="#E9144E" d="M264 154c5.673-.293 8.99-.006 14 3l-2 3c-3.125.188-3.125.188-6 0l1-5h-7z"/><path fill="#F42376" d="M212 18h13v3h-12z"/><path fill="#13338C" d="m89 409 7 1v7l-5-1 1-6z"/><path fill="#911D63" d="M432 101a56.5 56.5 0 0 1-4 7h-2v-4h-2v-2c3.067-1.862 4.597-2.215 8-1"/><path fill="#0643AD" d="M172 463h5v2h3v2l-5 1v2l3 1-5-1v-3a93 93 0 0 0-1-4"/><path fill="#0C58B8" d="M274 409h13l-1 3h-12z"/><path fill="#023A98" d="M305.063 403.938 308 404v2c1.96 1.637 1.96 1.637 4 3-1 1-1 1-4.062 1.063L305 410l-.312-1.937L304 406l-3-1c1-1 1-1 4.063-1.062"/><path fill="#1758C5" d="M476 201c3 3 3 3 3.293 5.262l-.106 2.425-.082 2.45L479 213l-4-1z"/><path fill="#DB1F6C" d="M287 104h17v1h-6l-1 3q-2.221-.423-4.437-.875l-2.497-.492L288 106z"/><path fill="#F2145C" d="M146 38h2c-.375 1.938-.375 1.938-1 4l-2 1-2 3-1-2-1.812 1C138 46 138 46 135 46l1-3h4v-2h5z"/><path fill="#EA0861" d="M206 24h14c-4.083 3.062-4.565 3.372-9.25 3.188l-2.703-.083L206 27z"/><path fill="#084FC3" d="M109 427h4v2l4 1v2l1.813.375C121 433 121 433 124 435l-1 2-7-4v-2h-7z"/><path fill="#1056C3" d="m317 404-2 4-8-1 1-3c3.378-.845 5.675-1.108 9 0"/><path fill="#034FC2" d="M476 247c1.404 2.621 2.617 5.032 3 8l-2 3c-.46 2.968-.46 2.968-.625 6.188l-.227 3.292L476 270h-1c-.185-15.745-.185-15.745 1-23"/><path fill="#D50F5F" d="M272 220h6v3c-8.429 2.286-8.429 2.286-13 2v-2l7-1z"/><path fill="#023B9B" d="m479 200-1 4-1-1-1 5h-3v-8c3-1 3-1 6 0"/><path fill="#0C42A8" d="m362 157 2 1c.25 2.313.25 2.313 0 5-2.044 1.976-3.118 3-6 3v-6h2z"/><path fill="#E82876" d="M39 145h5v5h-2v3h-3z"/><path fill="#1351B5" d="m336 461 1 2h3v3l-9 1v-4z"/><path fill="#064FC2" d="m144 449 4 1v2l2.75-.187C154 452 154 452 158 455h-10v-2h-2v-3z"/><path fill="#001F66" d="M104 409h18c-2.621 2.621-4.224 2.478-7.875 2.813l-3.18.332C108 412 108 412 104 409"/><path fill="#DE0B5C" d="M202 298h1l2 17-3 1z"/><path fill="#E01757" d="M28 312h1v10l2 1h-4c-1.895-1.895-1.18-4.571-1.23-7.09C26 314 26 314 28 312"/><path fill="#C90B55" d="m28 306 2 1c.188 2.375.188 2.375 0 5l-3 2-2 3c-1-1-1-1-1.062-3.562L24 311h2z"/><path fill="#06409E" d="m430 127 4 1-2 5h-8v-3h7z"/><path fill="#E91F6C" d="m319 27 8 1 1 3c-5.415 2.215-5.415 2.215-8.375 1.125L318 31z"/><path fill="#1342A3" d="M96 410c3.254.561 4.88 1.456 7 4v1h-5v3h-2z"/><path fill="#1C5BC4" d="m348 224 1 2h2v-2h2l1 4-3 1-1 3-3-1z"/><path fill="#093797" d="M359 115h9l1 2h-5v3h-7z"/><path fill="#80227A" d="M305 107h5l-1 6a109 109 0 0 1-7-1l-1-2h3z"/><path fill="#DE1D6A" d="M392 63v8c-2.437-1.187-2.437-1.187-5-3-.812-2.687-.812-2.687-1-5 2.49-1.245 3.41-.777 6 0"/><path fill="#0733AD" d="M272 478c2.602-.293 2.602-.293 5.625-.187l3.04.082L283 478c-1.774 2.246-2.584 2.95-5.48 3.293l-2.707-.106-2.731-.082L270 481z"/><path fill="#E31A65" d="M25 290v6c-3 1-3 1-6 0v-4c4.875-2 4.875-2 6-2"/><path fill="#2A48AD" d="m331 241 2 3h-2l-2 6h-3v-6l5-1z"/><path fill="#034CC2" d="M446 139h3c3.913 7.648 3.913 7.648 5 11l-1 3a1438 1438 0 0 1-3.5-5.875l-1.969-3.305C446 141 446 141 446 139"/><path fill="#04409B" d="M190 470h8l-1 3h-5v2l-4-1 2-1z"/><path fill="#135AB4" d="M419 401h5v5h-2v2l-3-1z"/><path fill="#1B5DCB" d="M375 312h1v25l-3 1 1-3c.148-1.772.248-3.548.316-5.324l.127-3.115.12-3.248.13-3.284q.16-4.014.307-8.029"/><path fill="#0840AA" d="M465 164c2.125.375 2.125.375 4 1v3h-3l-1 4h-2c-.125-2.875-.125-2.875 0-6z"/><path fill="#C31355" d="m304 331 4 1v7l-2 1-1-3-2-1z"/><path fill="#D91870" d="m208 274 4 2-3 1-1 7h-1l-1-6h-2l-1 5h-1c-.043-2-.04-4 0-6 1-1 1-1 3.563-1.062L208 276z"/><path fill="#0A49B1" d="M329 114c5.875 2.875 5.875 2.875 7 4 .04 1.666.043 3.334 0 5h-2l-1-4h-4z"/><path fill="#0758DF" d="M372 433c2.063.438 2.063.438 4 1-4.308 4.923-4.308 4.923-7.812 5.313L366 439z"/><path fill="#0B48B0" d="M371 351h2c-1.625 6.75-1.625 6.75-5 9v-4h-2l-1 3 1-5h4z"/><path fill="#DC1964" d="M22 275q.079 2.187.125 4.375l.07 2.46C22 284 22 284 20 286c-1.187-3.25-1.187-3.25-2-7 2.154-4 2.154-4 4-4"/><path fill="#1C5BC1" d="M350 265h4c2 5.75 2 5.75 2 8h-3v-3h-2z"/><path fill="#0C4FB7" d="m433 129 1 4h9v2h-11z"/><path fill="#160053" d="M318 117c3 2 3 2 3.688 4.125L322 123c-3.576 0-5.053-1.088-8-3 1-2 1-2 4-3"/><path fill="#F12B7C" d="M419 93h5v2l2 1c-2 2-2 2-4.625 2.125L419 98z"/><path fill="#D70A5A" d="M121 63c-4.75 4-4.75 4-7 4v2h-3v-3c6.625-4.125 6.625-4.125 10-3"/><path fill="#E11062" d="M213 22h12l-1 3-12-1z"/><path fill="#023AAB" d="m183 467 5 1-3 5-5-1 2-1c.652-2.025.652-2.025 1-4"/><path fill="#1B5CCA" d="M338.188 391.75 341 392v3c-4.43 2.092-4.43 2.092-7.312 1.625L332 396c1.823-3.241 2.362-3.95 6.188-4.25"/><path fill="#DD0A59" d="m32 317 3 1v6h2v4l-3-1v-5h-2z"/><path fill="#1050BF" d="M377 441v5c-2.875.625-2.875.625-6 1l-2-2c4.625-4 4.625-4 8-4"/><path fill="#0436A6" d="M469 312h5v7l-3 1 1-5h-3z"/><path fill="#CE0F5F" d="M203 210c2 2 2 2 2.125 5.125L205 218h-2v7h-1q-.04-2.906-.062-5.812l-.036-3.27C202 213 202 213 203 210"/><path fill="#E9045C" d="M265 161c1.773.256 3.543.53 5.313.813l2.988.457c2.826.764 3.895 1.483 5.699 3.73h-7v-2l-7-2z"/><path fill="#E01964" d="M267.625 154.875 271 155l-1 5h-3v-3h-5c2-2 2-2 5.625-2.125"/><path fill="#1F5AC2" d="m454 142 4 1 1 7h-3v-4h-2z"/><path fill="#DA2268" d="m426 95 1 2h2l-1 4-7-1v-2c2.5-1.625 2.5-1.625 5-3"/><path fill="#D90B5B" d="M199 24h7v3h-8zm-3 3 2 1h-3z"/><path fill="#0354C8" d="M197 469c5.439-.218 9.87-.104 15 2v1h-10v-2l-3 1z"/><path fill="#145BC9" d="m354 378 2 1-2 4h-3v2h-5v-2l1.75-.25c2.866-.955 4.25-2.535 6.25-4.75"/><path fill="#123895" d="M373 117c2.813-.187 2.813-.187 6 0l3 3h-10z"/><path fill="#D51762" d="m372 48 1 3h-4v2h3l-1 3v-2h-3v-2l-4-1c4.625-3 4.625-3 8-3"/><path fill="#EF186B" d="m132 47 1 4h-2v2c-1.937-.375-1.937-.375-4-1l-1-2h2v-2z"/><path fill="#F10659" d="M270 16h14l1 2-6 1v-2l-9 1z"/><path fill="#1A64CE" d="M287 409h5l1 4c-3 1-3 1-5.187.063L286 412z"/><path fill="#0848AE" d="m444 368 5 3-1 3-4-2v2h-3c0-3 0-3 1.5-4.687z"/><path fill="#EA2275" d="M195 23v3h-9v-2c3.196-1.065 5.657-1.074 9-1"/><path fill="#1D52AC" d="M92 418h4v6h-3v-3h-2z"/><path fill="#E70C5F" d="M47 349c1.5 1.375 1.5 1.375 3 3v2h2l1 4h-3c-2.278-2.278-2.966-3.508-3.187-6.75z"/><path fill="#E12472" d="M43 354h4l-1 7h-2l-2-6z"/><path fill="#E42473" d="M22 199h2v8l-3-1c-.812-1.875-.812-1.875-1-4z"/><path fill="#1B5CCA" d="M472 184h2v8h-3q-.062-3.5 0-7z"/><path fill="#0540A9" d="m359 150 2 1c.188 2.375.188 2.375 0 5-3 2-3 2-6 2v-3h3z"/><path fill="#1B4ABD" d="m354 114 6 2-1 2h-8z"/><path fill="#CE2678" d="M304 104v3h-3l-1 3-3-1 1-4z"/><path fill="#E22271" d="m418 88 1 2h3v3h-3v5h-1q-.29-2.218-.562-4.437l-.317-2.497L417 89z"/><path fill="#DF0E61" d="m91 84 1 3-1.875 1.813C87.863 91.008 87.863 91.008 86 94h-2c.688-2.875.688-2.875 2-6 2.625-1.375 2.625-1.375 5-2z"/><path fill="#195FD0" d="M479 284v8h-3v-7c2-1 2-1 3-1"/><path fill="#1B51CF" d="M343 260h5l1 2c-.937 2.125-.937 2.125-2 4-2-1.312-2-1.312-4-3z"/><path fill="#1146A8" d="m343 231 1 3h2l1 4-3 1-2-3h-2v-2h3z"/><path fill="#F70E38" d="m157 104 7 2v1c-4.122 1.63-6.707 2.263-11 1l3-1z"/><path fill="#D1115A" d="m288 21-1 3h-9v-2c6.625-1 6.625-1 10-1"/><path fill="#2251C1" d="M330 250c3.125-.187 3.125-.187 6 0v3h-8z"/><path fill="#E72376" d="M27 179h2v8l-4-2z"/><path fill="#2159C7" d="M366 117h7l-1 3h-7z"/><path fill="#4B2390" d="M320 107c6.625-.125 6.625-.125 10 1v2h-7v-2z"/><path fill="#6E4AA7" d="M323 108v2h-9v-2c3.478-1.16 5.459-.708 9 0"/><path fill="#0451C4" d="m448 355 1 2c-3.412 6.706-3.412 6.706-6 8a85 85 0 0 1 2-7h2z"/><path fill="#06379E" d="M372 328c1.607 3.215 1.057 6.436 1 10l-3 1q.21-2.47.438-4.937c.08-.917.162-1.834.246-2.778C371 329 371 329 372 328"/><path fill="#1959C0" d="M363 280h3l1 6-3 1z"/><path fill="#D90F6A" d="M298 189h3v6h-2l-1 2z"/><path fill="#B4125D" d="M298 180h2v7h-2l-1-3-2 1v-3h3z"/><path fill="#E92F7A" d="M38 155h1v6l-5 1v-3h2z"/><path fill="#1657BE" d="M350 136h1v8h-3c-.125-2.875-.125-2.875 0-6z"/><path fill="#225BC6" d="M434 130h8l1 2-9 1z"/><path fill="#0747B9" d="M388 123v3h-11v-1c3.877-1.193 6.916-2 11-2"/><path fill="#2250A3" d="m324 110 1 3h4v5l-5-2z"/><path fill="#C2195F" d="M421 100h5v2h-2v2h-5z"/><path fill="#001E9A" d="M221 478v2l3 1c-6.625.25-6.625.25-10-2 2.463-1.231 4.28-1.072 7-1"/><path fill="#0251C6" d="m341 454 3 1c-3.423 3.15-6.443 3.562-11 4v-2l2.875-.937c2.986-.937 2.986-.937 5.125-2.063"/><path fill="#0D389F" d="M98 426h3v2h2l1-2 1 5c-2.962-.613-4.38-1.254-7-3z"/><path fill="#1153BB" d="M474 192h2v8h-3z"/><path fill="#1255B7" d="M361 166h2v8l-3-1z"/><path fill="#EA2D78" d="M53 123h3v5h-2v2l-3-1 1-2.437c1.06-2.26 1.06-2.26 1-3.563"/><path fill="#0E3EC3" d="m390 120 6 1-5 5-2-1z"/><path fill="#E32974" d="m62 111 2 1c-.573 2.867-.861 3.861-3 6v-2h-2v-3h3z"/><path fill="#DD2262" d="M73 95h2c-1.75 3.875-1.75 3.875-4 5 .875-3.875.875-3.875 2-5m-5 5 3 1-4 3z"/><path fill="#DF206C" d="m103 71 1 3c-4.625 4-4.625 4-8 4l1-3 2 1 1-3h3z"/><path fill="#DC0C5E" d="M182 29h11v1l-10 2z"/><path fill="#012DA2" d="m203 473 4 1c-1.125 2-1.125 2-3 4-3.187.25-3.187.25-6 0l-1-2 6 1z"/><path fill="#134BA9" d="M365 446h6l1 3-7-1z"/><path fill="#F31152" d="m31 331 3 1v7l-3-2c-.187-3.125-.187-3.125 0-6"/><path fill="#002975" d="M371 309h2v8c-1.562-1.187-1.562-1.187-3-3 .313-2.687.313-2.687 1-5"/><path fill="#154AAD" d="M349 261c1.858 3.135 2.201 5.375 2 9l-1-2h-2c-.043-2-.04-4 0-6z"/><path fill="#023F9E" d="M364 169h2l-1 5-5 1v-2h2z"/><path fill="#E90C37" d="M208 154h8v3h-5v-2z"/><path fill="#E71C6E" d="M198 21h7v2l-8 2z"/><path fill="#024091" d="M310 468h5v3l2 1c-3.106 0-4.353-.54-7-2z"/><path fill="#0B52B2" d="M301 406h3v4h-5z"/><path fill="#0550C7" d="m420 396 1 3c-2.36 2.36-3.779 2.491-7 3l1-3 5-1z"/><path fill="#1559BB" d="m448 365 2 1-1 5-3-1v-4z"/><path fill="#034EC5" d="m347 255 6 1v3l-4 1v-3h-2z"/><path fill="#0450C2" d="m337 250 7 1v3l-7-2z"/><path fill="#1143A3" d="M333 245h3v4h-5z"/><path fill="#0844A7" d="M361 207h3v6l-3-1z"/><path fill="#D50B59" d="M285 168h3c1.688 2.5 1.688 2.5 3 5l-5-1z"/><path fill="#024DC3" d="M458 161h3l1 6-4-1z"/><path fill="#0B3DA8" d="M409 123v2h-8v-2c3.053-.981 4.947-.981 8 0"/><path fill="#F11853" d="m178 104 4 1v2l-7 1z"/><path fill="#9B1853" d="m428 100 4 1v2h-3zm-2 1 2 1-1 2h-3v-2z"/><path fill="#D60D5A" d="m351 45 7 2v2c-4.75-.875-4.75-.875-7-2z"/><path fill="#EE2375" d="M160 33h5v3h-7l2-1z"/></svg>